<?xml version="1.0" encoding="UTF-8" standalone="no"?>
<!-- Created with Inkscape (http://www.inkscape.org/) -->

<svg
   version="1.1"
   id="svg2"
   xml:space="preserve"
   width="1440"
   height="1440"
   viewBox="0 0 1440 1440"
   sodipodi:docname="Glider gray.svg"
   inkscape:version="1.2.2 (b0a8486541, 2022-12-01)"
   xmlns:inkscape="http://www.inkscape.org/namespaces/inkscape"
   xmlns:sodipodi="http://sodipodi.sourceforge.net/DTD/sodipodi-0.dtd"
   xmlns="http://www.w3.org/2000/svg"
   xmlns:svg="http://www.w3.org/2000/svg"><defs
     id="defs6"><clipPath
       clipPathUnits="userSpaceOnUse"
       id="clipPath16"><path
         d="M 0,1080 H 1080 V 0 H 0 Z"
         id="path14" /></clipPath></defs><sodipodi:namedview
     id="namedview4"
     pagecolor="#ffffff"
     bordercolor="#666666"
     borderopacity="1.0"
     inkscape:pageshadow="2"
     inkscape:pageopacity="0.0"
     inkscape:pagecheckerboard="0"
     showgrid="false"
     inkscape:zoom="0.94316065"
     inkscape:cx="720.98004"
     inkscape:cy="721.51017"
     inkscape:window-width="3774"
     inkscape:window-height="2091"
     inkscape:window-x="0"
     inkscape:window-y="0"
     inkscape:window-maximized="1"
     inkscape:current-layer="g8"
     inkscape:showpageshadow="2"
     inkscape:deskcolor="#d1d1d1" /><g
     id="g8"
     inkscape:groupmode="layer"
     inkscape:label="Glider gray"
     transform="matrix(1.3333333,0,0,-1.3333333,0,1440)"><g
       id="g10"
       transform="matrix(-0.94819789,-0.31768026,-0.31768026,0.94819789,1268.3079,206.7843)"><g
         id="g12"
         clip-path="url(#clipPath16)"><g
           id="g18"
           transform="translate(914,1027.728)"><path
             d="m 0,0 c 0,0 -4.733,-2.489 -24.764,-26.721 -20.031,-24.232 -80.717,-97.634 -80.717,-97.634 l 2.051,-3.061 81.679,97.993 c 0,0 16.542,19.686 21.751,29.423"
             style="fill:#b2b2b2;fill-opacity:1;fill-rule:nonzero;stroke:none"
             id="path20" /></g><g
           id="g22"
           transform="translate(892.9153,1000.9537)"><path
             d="m 0,0 c 10.778,13.354 15.941,20.748 18.319,24.514 2.046,1.878 2.766,2.26 2.766,2.26 C 15.876,17.038 -0.666,-2.649 -0.666,-2.649 l -81.679,-97.993 -0.577,0.862 C -71.398,-86.016 -15.805,-19.582 0,0"
             style="fill:#565656;fill-opacity:1;fill-rule:nonzero;stroke:none"
             id="path24" /></g><g
           id="g26"
           transform="translate(711.5381,775.8247)"><path
             d="m 0,0 c -1.217,2.083 -3.223,4.202 -6.227,5.191 l 91.294,113.144 6.805,-5.542 z"
             style="fill:#8e8e8e;fill-opacity:1;fill-rule:nonzero;stroke:none"
             id="path28" /></g><g
           id="g30"
           transform="translate(796.3108,896.9796)"><path
             d="m 0,0 -94.719,-117.389 c 7.737,-0.006 9.374,-7.636 9.374,-7.636 L 9.913,-8.074 Z M 0.59,-5.639 4.286,-8.65 -84.68,-117.875 c -0.862,0.99 -1.905,1.91 -3.148,2.656 z"
             style="fill:#565656;fill-opacity:1;fill-rule:nonzero;stroke:none"
             id="path32" /></g><g
           id="g34"
           transform="translate(679.5176,725.416)"><path
             d="m 0,0 c -1.464,2.638 -3.728,5.672 -7.138,8.067 -3.628,2.547 -7.75,3.656 -11.239,4.348 5.892,3.342 15.813,10.076 25.945,21.885 10.992,12.809 14.787,17.203 16.065,18.675 1.596,-0.184 4.786,-1.064 6.259,-5.105 C 25.722,43.129 6.379,20.415 0,0"
             style="fill:#8e8e8e;fill-opacity:1;fill-rule:nonzero;stroke:none"
             id="path36" /></g><g
           id="g38"
           transform="translate(702.4429,780.4371)"><path
             d="m 0,0 c -0.106,0 -0.164,-0.003 -0.164,-0.003 0,0 -1.236,-1.381 -16.71,-19.416 -15.475,-18.034 -30.589,-24.042 -30.589,-24.042 4.001,-1 10.747,-1.266 16.25,-5.13 6.994,-4.911 8.751,-12.87 8.751,-12.87 4.11,23.363 31.673,53.823 31.673,53.823 C 7.297,-0.325 1.088,0 0,0 m 1.481,-4.208 c 1.041,-0.298 2.27,-0.998 3.142,-2.59 -5.164,-5.978 -21.021,-25.211 -28.104,-43.756 -1.411,1.835 -3.194,3.664 -5.433,5.237 -2.351,1.65 -4.853,2.734 -7.27,3.495 6.023,3.912 14.135,10.23 22.345,19.799 9.386,10.938 13.524,15.738 15.32,17.815"
             style="fill:#565656;fill-opacity:1;fill-rule:nonzero;stroke:none"
             id="path40" /></g><g
           id="g42"
           transform="translate(794.6625,894.9559)"><path
             d="m 0,0 c 0,0 3.152,0.014 6.456,-2.678 3.305,-2.691 3.752,-4.915 3.752,-4.915 0,0 5.028,3.308 6.911,6.438 2.22,3.689 3.495,8.147 0.144,11.168 C 13.815,13.121 8.916,10.962 6.559,9.017 4.165,7.041 0.792,1.936 0,0"
             style="fill:#565656;fill-opacity:1;fill-rule:nonzero;stroke:none"
             id="path44" /></g><g
           id="g46"
           transform="translate(790.4773,877.3304)"><path
             d="M 0,0 C 0.912,-0.743 2.255,-0.606 2.998,0.306 3.741,1.219 3.604,2.561 2.691,3.304 1.779,4.048 0.437,3.91 -0.306,2.998 -1.05,2.085 -0.912,0.743 0,0"
             style="fill:#565656;fill-opacity:1;fill-rule:nonzero;stroke:none"
             id="path48" /></g><g
           id="g50"
           transform="translate(804.6935,893.2927)"><path
             d="M 0,0 C 0.912,-0.743 2.255,-0.606 2.998,0.306 3.741,1.219 3.604,2.561 2.691,3.304 1.779,4.048 0.437,3.91 -0.306,2.998 -1.05,2.085 -0.912,0.743 0,0"
             style="fill:#b2b2b2;fill-opacity:1;fill-rule:nonzero;stroke:none"
             id="path52" /></g><g
           id="g54"
           transform="translate(659.2816,735.1244)"><path
             d="m 0,0 c -1.063,-0.118 -1.792,-1.12 -1.567,-2.165 0.432,-1.999 2.092,-5.475 7.878,-9.783 5.755,-4.286 9.576,-3.945 11.427,-3.293 0.837,0.295 1.319,1.186 1.125,2.052 -0.419,1.87 -1.838,5.432 -6.615,9.323 C 7.331,0.139 2.458,0.273 0,0"
             style="fill:#174477;fill-opacity:1;fill-rule:nonzero;stroke:none"
             id="path56" /></g><g
           id="g58"
           transform="translate(549.2324,737.0889)"><path
             d="m 0,0 14.642,19.702 76.93,-39.631 -61.83,-45.398 z"
             style="fill:#706d61;fill-opacity:1;fill-rule:nonzero;stroke:none"
             id="path60" /></g><g
           id="g62"
           transform="translate(563.2813,759.3458)"><path
             d="m 0,0 -16.358,-22.011 31.251,-68.642 66.418,48.766 z m 1.186,-5.11 72.552,-37.375 -57.245,-42.03 -28.232,62.012 z"
             style="fill:#565656;fill-opacity:1;fill-rule:nonzero;stroke:none"
             id="path64" /></g><g
           id="g66"
           transform="translate(677.9336,718.1641)"><path
             d="M 0,0 81.753,-40.366 66.979,-58.505 -37.647,-65.062 Z"
             style="fill:#706d61;fill-opacity:1;fill-rule:nonzero;stroke:none"
             id="path68" /></g><g
           id="g70"
           transform="translate(677.1409,720.7862)"><path
             d="m 0,0 -40.456,-69.913 109.226,6.845 16.911,20.762 z M 1.587,-5.244 79.411,-43.67 66.773,-59.186 -33.254,-65.454 Z"
             style="fill:#565656;fill-opacity:1;fill-rule:nonzero;stroke:none"
             id="path72" /></g><g
           id="g74"
           transform="translate(570.6401,666.1918)"><path
             d="m 0,0 c 0,0 -7.96,-12.611 21.84,-35.849 29.8,-23.238 36.222,-11.444 36.222,-11.444 0,0 6.046,17.063 -20.686,37.266 C 10.644,10.176 0,0 0,0"
             style="fill:#0b131f;fill-opacity:1;fill-rule:nonzero;stroke:none"
             id="path76" /></g><g
           id="g78"
           transform="translate(596.7985,637.8184)"><path
             d="m 0,0 c -11.405,9.289 -18.326,19.673 -15.459,23.192 2.867,3.52 14.436,-1.157 25.84,-10.447 C 21.786,3.456 28.707,-6.927 25.84,-10.447 22.974,-13.966 11.405,-9.289 0,0 M -3.191,-3.682 C 11.017,-15.255 25.978,-20.41 30.225,-15.196 34.472,-9.982 26.397,3.627 12.188,15.2 -2.02,26.773 -16.981,31.928 -21.228,26.714 -25.475,21.499 -17.4,7.891 -3.191,-3.682"
             style="fill:#98a0ac;fill-opacity:1;fill-rule:nonzero;stroke:none"
             id="path80" /></g><g
           id="g82"
           transform="translate(570.0488,662.2671)"><path
             d="m 0,0 c 6.231,6.37 29.586,29.876 52.635,48.37 23.788,19.087 31.781,23.928 33.192,24.732 0.336,0.045 0.989,0.115 1.875,0.115 2.658,0 7.905,-0.641 13.179,-4.936 4.883,-3.977 6.779,-8.828 7.31,-10.474 -2.663,-6.328 -24.614,-57.803 -50.79,-99.211 z"
             style="fill:#8e8e8e;fill-opacity:1;fill-rule:nonzero;stroke:none"
             id="path84" /></g><g
           id="g86"
           transform="translate(657.751,737.4841)"><path
             d="m 0,0 c -1.584,0 -2.534,-0.196 -2.534,-0.196 0,0 -6.59,-3.271 -33.786,-25.091 -27.196,-21.822 -54.431,-50.197 -54.431,-50.197 l 61,-44 c 28.73,44.913 52.358,101.951 52.358,101.951 0,0 -1.557,6.765 -8.166,12.148 C 8.778,-0.773 3.142,0 0,0 m 0,-4 c 2.393,0 7.122,-0.583 11.915,-4.487 3.929,-3.2 5.74,-7.019 6.433,-8.854 -3.639,-8.589 -24.412,-56.73 -49.208,-96.411 l -53.783,38.794 c 7.977,8.084 29.54,29.471 50.826,46.551 22.513,18.063 30.634,23.209 32.573,24.351 C -0.943,-4.027 -0.52,-4 0,-4"
             style="fill:#565656;fill-opacity:1;fill-rule:nonzero;stroke:none"
             id="path88" /></g><g
           id="g90"
           transform="translate(620.8298,653.5797)"><path
             d="M 0,0 C 1.304,-1.062 3.221,-0.866 4.283,0.438 5.344,1.741 5.148,3.659 3.845,4.721 2.541,5.782 0.624,5.586 -0.438,4.283 -1.5,2.979 -1.304,1.062 0,0"
             style="fill:#565656;fill-opacity:1;fill-rule:nonzero;stroke:none"
             id="path92" /></g><g
           id="g94"
           transform="translate(654.1169,730.1168)"><path
             d="M 0,0 C 1.043,-0.849 2.577,-0.693 3.426,0.35 4.276,1.393 4.119,2.927 3.076,3.776 2.033,4.626 0.499,4.469 -0.35,3.426 -1.2,2.383 -1.043,0.849 0,0"
             style="fill:#565656;fill-opacity:1;fill-rule:nonzero;stroke:none"
             id="path96" /></g><g
           id="g98"
           transform="translate(667.8065,718.9665)"><path
             d="M 0,0 C 1.043,-0.849 2.577,-0.693 3.426,0.35 4.276,1.393 4.119,2.927 3.076,3.776 2.033,4.626 0.499,4.469 -0.35,3.426 -1.2,2.383 -1.043,0.849 0,0"
             style="fill:#565656;fill-opacity:1;fill-rule:nonzero;stroke:none"
             id="path100" /></g><g
           id="g102"
           transform="translate(635.4672,717.8244)"><path
             d="m 0,0 -11.399,6.132 c -0.149,0.08 -0.3,0.155 -0.453,0.224 -2.219,1.004 -4.821,0.652 -6.824,-0.735 L -21.17,3.894 -36.489,-8.488 c -1.987,-1.606 -3.371,-3.837 -3.929,-6.33 l -4.781,-21.393 c 0,0 -0.781,-2.335 -2.227,-3.666 -0.465,-0.427 -0.605,-1.101 -0.311,-1.661 l 1.141,-2.173 10.732,9.32 c -1.921,1.095 -2.922,3.298 -2.485,5.465 l 1.853,9.184 c 0.386,3.004 1.726,6.888 4.263,9.09 l 9.491,8.76 c 2.779,2.448 6.03,4.511 8.545,3.26 v 0 L -9.81,-1.01 c 1.515,-0.821 1.954,-2.817 0.882,-4.165 -0.018,-0.024 -0.037,-0.047 -0.056,-0.071 l 1.031,-1.625 z"
             style="fill:#b2b2b2;fill-opacity:1;fill-rule:nonzero;stroke:none"
             id="path104" /></g><g
           id="g106"
           transform="translate(672.6045,708.0112)"><path
             d="M 0,0 48.938,29.59 44.133,22.159 -26.904,-45.752 Z"
             style="fill:#8e8e8e;fill-opacity:1;fill-rule:nonzero;stroke:none"
             id="path108" /></g><g
           id="g110"
           transform="translate(727.9332,743.8037)"><path
             d="m 0,0 -56.796,-34.343 -34.452,-58.588 81.604,78.015 z m -12.84,-12.438 -60.377,-57.722 19.356,32.918 z"
             style="fill:#565656;fill-opacity:1;fill-rule:nonzero;stroke:none"
             id="path112" /></g><g
           id="g114"
           transform="translate(492.6911,582.7862)"><path
             d="m 0,0 c 0,0 -1.66,-5.656 12.555,-21.946 10.466,-11.993 24.408,-22.557 32.274,-27.858 4.154,-2.8 11.004,-6.128 15.764,-7.689 4.141,-1.357 9.009,-2.748 11.159,-0.95 4.317,3.61 -17.942,35.089 -17.942,35.089 L 34.071,-8.062 14.264,-0.566 4.107,1.425 C 4.107,1.425 1.626,1.758 0,0"
             style="fill:#9fa7b3;fill-opacity:1;fill-rule:nonzero;stroke:none"
             id="path116" /></g><g
           id="g118"
           transform="translate(565.1387,528.6465)"><path
             d="m 0,0 c -2.671,7.374 -9.987,23.963 -25.137,36.303 -15.453,12.587 -32.942,17.874 -43.244,19.4 11.118,12.475 55.318,61.829 74.714,79.887 0.247,0.009 0.561,0.016 0.935,0.016 4.492,0 16.294,-0.961 28.84,-9.86 C 50.339,115.652 58.443,101.129 61.403,90.579 57.356,84.188 27.859,37.826 0,0"
             style="fill:#8e8e8e;fill-opacity:1;fill-rule:nonzero;stroke:none"
             id="path120" /></g><g
           id="g122"
           transform="translate(572.4071,666.2523)"><path
             d="m 0,0 c -1.138,0 -1.767,-0.06 -1.767,-0.06 -22.144,-20.44 -77.949,-83.406 -77.949,-83.406 9.509,-0.62 29.047,-5.54 46.048,-19.388 19.354,-15.764 25.704,-39.055 25.704,-39.055 30.881,41.532 64.259,94.556 64.259,94.556 -2.851,10.96 -11.367,26.534 -26.298,37.124 C 16.902,-0.94 4.488,0 0,0 m 0,-4 v 0 c 4.301,0 15.607,-0.925 27.683,-9.491 13.414,-9.515 21.305,-23.458 24.278,-33.23 -5.355,-8.439 -32.443,-50.833 -58.689,-86.766 -3.525,8.527 -10.954,22.771 -24.414,33.735 -14.097,11.482 -29.886,17.024 -40.627,19.193 13.868,15.523 53.24,59.287 71.64,76.559 0.043,0 0.085,0 0.129,0"
             style="fill:#565656;fill-opacity:1;fill-rule:nonzero;stroke:none"
             id="path124" /></g><g
           id="g126"
           transform="translate(494.6136,585.1465)"><path
             d="m 0,0 c 0,0 -1.66,-5.656 12.555,-21.946 10.466,-11.993 24.408,-22.557 32.274,-27.858 4.154,-2.8 11.004,-6.128 15.764,-7.689 4.141,-1.357 9.524,-3.226 11.159,-0.95 1.45,2.019 -19.48,33.201 -19.48,33.201 L 32.621,-10.807 13.967,-1.895 3.81,0.096 C 3.81,0.096 1.626,1.758 0,0"
             style="fill:#9fa7b3;fill-opacity:1;fill-rule:nonzero;stroke:none"
             id="path128" /></g><g
           id="g130"
           transform="translate(559.9847,543.9747)"><path
             d="m 0,0 c 2.964,-5.02 4.511,-9.946 5.471,-13.33 l -4.108,-2.151 -21.311,9.506 -15.227,9.262 -14.337,13.248 -11.14,13.225 -2.534,10.476 18.128,-3.772 c 0.756,-4.537 3.819,-11.636 17.486,-22.17 C -17.043,6.179 -7.03,2.069 0,0"
             style="fill:#23221e;fill-opacity:1;fill-rule:nonzero;stroke:none"
             id="path132" /></g><g
           id="g134"
           transform="translate(558.3403,532.5137)"><path
             d="m 0,0 c 1.578,-0.495 3.129,-0.978 5.349,-0.653 1.525,-3.441 2.141,-6.079 1.073,-6.996 -2.126,-1.825 -7.012,-0.497 -11.17,0.807 -4.779,1.499 -11.671,4.74 -15.86,7.486 -7.934,5.2 -22.011,15.584 -32.63,27.442 -14.422,16.106 -12.835,21.783 -12.835,21.783 1.603,1.779 4.089,1.477 4.089,1.477 l 5.284,-0.452 c -0.209,-2.185 2.02,-9.221 8.132,-16.046 C -37.949,22.99 -25.838,13.033 -17.71,8.143 -10.332,3.704 -4.779,1.499 0,0"
             style="fill:#424038;fill-opacity:1;fill-rule:nonzero;stroke:none"
             id="path136" /></g><g
           id="g138"
           transform="translate(538,562)"><path
             d="m 0,0 c -17,13.847 -35.8,20.167 -45.309,20.786 0,0 1.13,1.274 3.126,3.515 5.407,-0.299 15.896,-1.869 28.926,-8.754 19.645,-10.381 29.179,-22.982 33.306,-29.484 3.561,-5.611 7.059,-13.802 8.706,-20.594 -0.772,-1.048 -1.543,-2.091 -2.312,-3.126 0,0 -7.089,21.893 -26.443,37.657"
             style="fill:#565656;fill-opacity:1;fill-rule:nonzero;stroke:none"
             id="path140" /></g><g
           id="g142"
           transform="translate(542.4746,565.0933)"><path
             d="M 0,0 2.494,3.062 C 2.596,3.187 2.577,3.371 2.452,3.473 L -0.386,5.785 C -0.518,5.893 -0.713,5.873 -0.821,5.74 L -3.304,2.691 C -3.311,2.683 -3.31,2.67 -3.301,2.663 l 3.272,-2.666 C -0.02,-0.01 -0.007,-0.009 0,0"
             style="fill:#565656;fill-opacity:1;fill-rule:nonzero;stroke:none"
             id="path144" /></g><g
           id="g146"
           transform="translate(605.351,653.8099)"><path
             d="m 0,0 -1.183,-1.4 c -0.686,-0.813 -0.584,-2.028 0.228,-2.715 l 0.226,-0.19 c 0.861,-0.728 2.148,-0.619 2.875,0.241 l 1.097,1.298 z"
             style="fill:#565656;fill-opacity:1;fill-rule:nonzero;stroke:none"
             id="path148" /></g><g
           id="g150"
           transform="translate(415.7754,338.9531)"><path
             d="m 0,0 c -2.972,7.689 -12.042,27.252 -31.905,42.157 -17.417,13.071 -33.981,15.862 -41.287,16.435 8.426,11.38 39.053,52.478 67.995,88.011 36.556,44.881 77.417,89.214 82.948,95.19 1.739,-0.116 6.066,-0.567 12.073,-2.309 7.272,-2.109 18.568,-6.597 31.082,-15.999 0.161,-0.126 18.339,-14.435 25.559,-37.719 C 141.354,178.775 103.853,127.604 67.819,81.584 35.499,40.308 7.873,8.853 0,0"
             style="fill:#8e8e8e;fill-opacity:1;fill-rule:nonzero;stroke:none"
             id="path152" /></g><g
           id="g154"
           transform="translate(492.6911,582.7862)"><path
             d="m 0,0 c 0,0 -44.061,-47.346 -83.663,-95.967 -34.22,-42.013 -70.309,-91.141 -70.309,-91.141 0,0 0.203,0.009 0.591,0.009 3.574,0 22.81,-0.756 43.36,-16.177 24.492,-18.379 32.346,-44.406 32.346,-44.406 0,0 31.52,34.861 70.153,84.2 39.043,49.862 79.274,105.039 79.274,105.039 -7.294,24.787 -26.561,39.694 -26.561,39.694 C 20.348,-0.084 0,0 0,0 m 1.639,-4.118 c 5.174,-0.515 21.754,-3.267 41.121,-17.807 0.631,-0.497 17.438,-13.916 24.576,-35.781 -6.943,-9.485 -43.164,-58.811 -78.008,-103.31 -29.838,-38.107 -55.671,-67.832 -65.615,-79.092 -3.991,9.214 -13.321,26.515 -31.333,40.032 -15.404,11.559 -30.209,15.268 -38.804,16.443 10.6,14.268 38.962,52.114 65.862,85.139 35.309,43.35 74.644,86.195 82.201,94.376"
             style="fill:#565656;fill-opacity:1;fill-rule:nonzero;stroke:none"
             id="path156" /></g><g
           id="g158"
           transform="translate(338.7189,395.6785)"><path
             d="m 0,0 c 0,0 -4.386,-12.859 29.602,-40.542 33.988,-27.684 46.695,-20.033 46.695,-20.033 0,0 3.388,16.93 -28.711,43.076 C 18.318,6.339 0,0 0,0"
             style="fill:#565656;fill-opacity:1;fill-rule:nonzero;stroke:none"
             id="path160" /></g><g
           id="g162"
           transform="translate(369.8588,357.0244)"><path
             d="M 0,0 C 21.714,-17.687 39.633,-23.644 40.052,-19.274 40.471,-14.904 31.78,2.383 14.314,16.609 -4.587,32.005 -20.627,36.562 -26.979,35.324 -31.647,34.414 -18.901,15.395 0,0"
             style="fill:#565656;fill-opacity:1;fill-rule:nonzero;stroke:none"
             id="path164" /></g><g
           id="g166"
           transform="translate(382.67,379.5104)"><path
             d="m 0,0 c -22.783,17.097 -43.951,16.168 -43.951,16.168 0,0 1.391,1.893 3.877,5.243 6.414,-0.52 20.743,-2.99 38.078,-14.23 22.168,-14.374 34.469,-35.509 37.981,-47.509 -2.358,-2.662 -3.639,-4.079 -3.639,-4.079 0,0 -7.853,26.028 -32.346,44.407"
             style="fill:#565656;fill-opacity:1;fill-rule:nonzero;stroke:none"
             id="path168" /></g><g
           id="g170"
           transform="translate(391.5441,377.8637)"><path
             d="M 0,0 2.494,3.062 C 2.596,3.187 2.577,3.371 2.452,3.473 L -0.386,5.785 C -0.518,5.893 -0.713,5.873 -0.821,5.74 L -3.304,2.691 C -3.311,2.683 -3.31,2.67 -3.301,2.663 l 3.272,-2.666 C -0.02,-0.01 -0.007,-0.009 0,0"
             style="fill:#565656;fill-opacity:1;fill-rule:nonzero;stroke:none"
             id="path172" /></g><g
           id="g174"
           transform="translate(372.1658,359.8568)"><path
             d="m 0,0 c 5.996,-4.884 12.665,-6.624 14.894,-3.887 2.23,2.738 -0.823,8.916 -6.82,13.8 C 2.078,14.797 -4.59,16.537 -6.82,13.8 -9.05,11.062 -5.996,4.884 0,0"
             style="fill:#706d61;fill-opacity:1;fill-rule:nonzero;stroke:none"
             id="path176" /></g><g
           id="g178"
           transform="translate(372.9348,360.8008)"><path
             d="M 0,0 C 5.996,-4.884 12.32,-7.047 14.125,-4.831 15.93,-2.615 12.533,3.141 6.536,8.025 0.54,12.909 -5.784,15.072 -7.589,12.856 -9.394,10.64 -5.996,4.884 0,0"
             style="fill:#b1b5bb;fill-opacity:1;fill-rule:nonzero;stroke:none"
             id="path180" /></g><g
           id="g182"
           transform="translate(375.0323,361.448)"><path
             d="M 0,0 C 2.346,-1.911 4.937,-2.615 5.786,-1.572 6.636,-0.529 5.422,1.865 3.076,3.776 0.73,5.688 -1.861,6.391 -2.71,5.349 -3.56,4.306 -2.346,1.911 0,0"
             style="fill:#706d61;fill-opacity:1;fill-rule:nonzero;stroke:none"
             id="path184" /></g><g
           id="g186"
           transform="translate(375.4168,361.9201)"><path
             d="M 0,0 C 2.346,-1.911 4.937,-2.615 5.786,-1.572 6.636,-0.529 5.422,1.865 3.076,3.776 0.73,5.688 -1.861,6.391 -2.711,5.349 -3.56,4.306 -2.346,1.911 0,0"
             style="fill:#d2d8dc;fill-opacity:1;fill-rule:nonzero;stroke:none"
             id="path188" /></g><g
           id="g190"
           transform="translate(308.0957,266.2354)"><path
             d="m 0,0 -21.525,15.929 -18.94,9.768 c 5.129,7.761 24.923,37.67 32.71,48.888 7.591,10.937 34.907,47.183 39.292,52.996 4.565,-0.059 24.011,-1.33 44.168,-17.748 C 95.784,93.479 103.077,74.091 104.588,69.49 100.104,64.478 76.447,38.052 55.224,14.585 32.495,-10.549 20.234,-22.797 19.442,-23.585 l -3.693,-3.254 z"
             style="fill:#8e8e8e;fill-opacity:1;fill-rule:nonzero;stroke:none"
             id="path192" /></g><g
           id="g194"
           transform="translate(339.2737,395.8189)"><path
             d="m 0,0 c -0.421,0 -0.643,-0.01 -0.643,-0.01 0,0 -31.595,-41.834 -39.934,-53.848 -9.052,-13.043 -33.963,-50.784 -33.963,-50.784 l 20.776,-10.716 21.068,-15.589 16.769,-28.579 5.558,4.896 c 0,0 12.182,12.064 35.899,38.29 23.716,26.225 50.125,55.755 50.125,55.755 0,0 -6.263,23.161 -29.865,42.386 C 24.494,-0.853 3.857,0 0,0 m 1.335,-4.03 c 5.778,-0.24 23.501,-2.261 41.929,-17.271 18.321,-14.923 25.782,-32.498 27.872,-38.335 -5.985,-6.687 -28.381,-31.694 -48.573,-54.021 -22.362,-24.728 -34.57,-36.958 -35.667,-38.051 l -1.828,-1.61 -14.314,24.395 -0.414,0.705 -0.657,0.486 -21.067,15.589 -0.259,0.192 -0.287,0.148 -16.816,8.673 c 6.512,9.845 24.205,36.545 31.455,46.991 7.273,10.478 32.749,44.314 38.626,52.109"
             style="fill:#565656;fill-opacity:1;fill-rule:nonzero;stroke:none"
             id="path196" /></g><g
           id="g198"
           transform="translate(258.0498,280.5845)"><path
             d="m 0,0 c 0,0 -5.804,-9.15 23.463,-32.989 10.514,-8.563 18.619,-12.086 24.406,-14.382 11.276,-4.473 14.178,-0.52 14.178,-0.52 0,0 4.978,16.326 -20.619,36.719 C 31.928,-3.604 12.88,7.041 0,0"
             style="fill:#767b84;fill-opacity:1;fill-rule:nonzero;stroke:none"
             id="path200" /></g><g
           id="g202"
           transform="translate(282.282,248.54)"><path
             d="M 0,0 C 15.382,-12.529 32.937,-17.405 34.859,-15.045 36.397,-13.156 30.168,3.696 14.786,16.225 -0.596,28.754 -20.249,32.983 -22.556,30.15 -25.247,26.846 -15.382,12.529 0,0"
             style="fill:#484c50;fill-opacity:1;fill-rule:nonzero;stroke:none"
             id="path204" /></g><g
           id="g206"
           transform="translate(328.3228,350.8242)"><path
             d="m 0,0 c -2.827,0 -5.306,0.802 -7.168,2.319 -2.273,1.851 -3.349,4.658 -3.028,7.904 0.313,3.165 1.925,6.614 4.662,9.974 4.288,5.265 11.108,8.942 16.583,8.942 2.804,0 5.251,-0.944 7.077,-2.73 C 23.11,21.535 21.638,13.587 14.377,6.16 10.774,2.476 4.996,0 0,0 0,0 0,0 0,0"
             style="fill:#706d61;fill-opacity:1;fill-rule:nonzero;stroke:none"
             id="path208" /></g><g
           id="g210"
           transform="translate(339.3722,381.463)"><path
             d="m 0,0 c -5.896,0 -13.193,-3.904 -17.746,-9.494 -2.924,-3.59 -4.65,-7.315 -4.992,-10.774 -0.372,-3.763 0.897,-7.035 3.573,-9.215 2.133,-1.738 4.94,-2.656 8.115,-2.656 5.374,0 11.583,2.657 15.45,6.612 7.899,8.078 9.361,16.859 3.725,22.37 C 6.013,-1.092 3.203,0 0,0 m 0,-3 c 2.277,0 4.378,-0.689 6.027,-2.302 4.809,-4.701 2.105,-12.117 -3.772,-18.128 -3.158,-3.229 -8.538,-5.709 -13.305,-5.709 -2.331,0 -4.515,0.593 -6.221,1.982 -3.776,3.076 -3.458,9.251 1.851,15.768 C -11.695,-6.815 -5.359,-3 0,-3"
             style="fill:#565656;fill-opacity:1;fill-rule:nonzero;stroke:none"
             id="path212" /></g><g
           id="g214"
           transform="translate(339.5876,373.8631)"><path
             d="M 0,0 C 0.472,-0.391 1.166,-0.319 1.55,0.161 1.934,0.641 1.863,1.348 1.391,1.739 0.92,2.13 0.226,2.058 -0.158,1.578 -0.543,1.097 -0.472,0.391 0,0"
             style="fill:#cccccc;fill-opacity:1;fill-rule:nonzero;stroke:none"
             id="path216" /></g><g
           id="g218"
           transform="translate(326.6045,368.0023)"><path
             d="M 0,0 C 0.327,-0.324 0.936,-0.226 1.36,0.218 1.784,0.662 1.863,1.284 1.536,1.608 1.209,1.932 0.6,1.834 0.175,1.39 -0.249,0.946 -0.327,0.324 0,0"
             style="fill:#cccccc;fill-opacity:1;fill-rule:nonzero;stroke:none"
             id="path220" /></g><g
           id="g222"
           transform="translate(341.2028,361.6777)"><path
             d="M 0,0 C 0.472,-0.391 1.166,-0.319 1.55,0.161 1.934,0.641 1.863,1.348 1.391,1.739 0.92,2.13 0.226,2.058 -0.158,1.578 -0.543,1.097 -0.472,0.391 0,0"
             style="fill:#cccccc;fill-opacity:1;fill-rule:nonzero;stroke:none"
             id="path224" /></g><g
           id="g226"
           transform="translate(325.4059,355.2519)"><path
             d="M 0,0 C 0.472,-0.391 1.166,-0.319 1.55,0.161 1.934,0.641 1.863,1.348 1.391,1.739 0.92,2.13 0.226,2.058 -0.158,1.578 -0.543,1.097 -0.472,0.391 0,0"
             style="fill:#cccccc;fill-opacity:1;fill-rule:nonzero;stroke:none"
             id="path228" /></g><g
           id="g230"
           transform="translate(382.021,315.1045)"><path
             d="m 0,0 c -3.924,0 -7.56,1.908 -9.727,5.104 -4.641,6.845 -4.077,15.966 1.404,22.696 2.757,3.385 6.603,5.326 10.554,5.326 5.045,0 9.264,-3.019 11.284,-8.073 C 16.029,18.76 14.61,10.715 9.984,5.036 7.339,1.789 3.794,0 0.001,0 Z"
             style="fill:#706d61;fill-opacity:1;fill-rule:nonzero;stroke:none"
             id="path232" /></g><g
           id="g234"
           transform="translate(384.2519,349.73)"><path
             d="m 0,0 c -4.403,0 -8.674,-2.143 -11.717,-5.879 -5.903,-7.246 -6.498,-17.086 -1.482,-24.485 2.446,-3.608 6.546,-5.761 10.968,-5.761 4.253,0 8.212,1.984 11.147,5.588 4.96,6.089 6.471,14.738 3.761,21.521 C 10.454,-3.455 5.597,0 0,0 m 0,-3 c 4.091,0 7.995,-2.386 9.891,-7.13 2.326,-5.82 0.929,-13.32 -3.301,-18.512 -2.548,-3.13 -5.763,-4.483 -8.821,-4.483 -3.4,0 -6.607,1.675 -8.485,4.445 -4.647,6.854 -3.289,15.242 1.325,20.907 C -6.795,-4.586 -3.336,-3 0,-3"
             style="fill:#565656;fill-opacity:1;fill-rule:nonzero;stroke:none"
             id="path236" /></g><g
           id="g238"
           transform="translate(388.4937,339.2024)"><path
             d="M 0,0 C 0.434,-0.353 1.071,-0.288 1.425,0.146 1.778,0.579 1.712,1.217 1.279,1.57 0.845,1.923 0.208,1.858 -0.146,1.425 -0.499,0.991 -0.434,0.353 0,0"
             style="fill:#cccccc;fill-opacity:1;fill-rule:nonzero;stroke:none"
             id="path240" /></g><g
           id="g242"
           transform="translate(379.4844,321.7282)"><path
             d="M 0,0 C 0.434,-0.353 1.071,-0.288 1.424,0.146 1.778,0.579 1.712,1.217 1.279,1.57 0.845,1.923 0.208,1.858 -0.146,1.425 -0.499,0.991 -0.434,0.353 0,0"
             style="fill:#cccccc;fill-opacity:1;fill-rule:nonzero;stroke:none"
             id="path244" /></g><g
           id="g246"
           transform="translate(376.2111,336.1475)"><path
             d="M 0,0 C 0.434,-0.353 1.071,-0.288 1.425,0.146 1.778,0.579 1.712,1.217 1.279,1.57 0.845,1.923 0.208,1.858 -0.146,1.425 -0.499,0.991 -0.434,0.353 0,0"
             style="fill:#cccccc;fill-opacity:1;fill-rule:nonzero;stroke:none"
             id="path248" /></g><g
           id="g250"
           transform="translate(390.5003,326.4971)"><path
             d="M 0,0 C 0.374,-0.19 0.882,0.059 1.136,0.558 1.39,1.056 1.293,1.614 0.919,1.805 0.545,1.995 0.036,1.745 -0.217,1.247 -0.471,0.749 -0.374,0.19 0,0"
             style="fill:#cccccc;fill-opacity:1;fill-rule:nonzero;stroke:none"
             id="path252" /></g><g
           id="g254"
           transform="translate(286.5114,253.7326)"><path
             d="M 0,0 C 2.868,-2.336 6.053,-3.173 7.115,-1.869 8.177,-0.566 6.713,2.385 3.845,4.721 0.977,7.056 -2.208,7.893 -3.27,6.59 -4.332,5.286 -2.868,2.336 0,0"
             style="fill:#c3c9d5;fill-opacity:1;fill-rule:nonzero;stroke:none"
             id="path256" /></g><g
           id="g258"
           transform="translate(320.7407,235.4023)"><path
             d="m 0,0 c -5.083,13.887 -14.004,25.702 -25.896,34.266 -2.3,1.656 -4.683,3.213 -7.084,4.625 -11.583,6.813 -22.346,7.793 -26.947,7.861 l 4.802,7.609 c 0.632,0.057 1.691,0.125 3.09,0.125 7.041,0 20.882,-1.653 34.476,-12.725 C -7.083,33.228 -1.102,23.79 2.071,17.375 4.731,11.995 5.918,7.78 6.325,6.117 Z"
             style="fill:#8e8e8e;fill-opacity:1;fill-rule:nonzero;stroke:none"
             id="path260" /></g><g
           id="g262"
           transform="translate(268.7064,291.389)"><path
             d="m 0,0 c -2.512,0 -3.973,-0.212 -3.973,-0.212 l -6.684,-10.593 c 0.673,0.047 1.415,0.074 2.221,0.074 6.316,0 16.471,-1.624 26.73,-7.658 2.496,-1.469 4.82,-3.002 6.968,-4.549 12.186,-8.777 21.257,-21.242 26.036,-35.479 0.031,-0.092 0.062,-0.185 0.093,-0.278 l 8.616,8.333 c 0,0 -3.814,20.382 -24.585,37.3 C 21.292,-1.553 6.796,0 0,0 m 0.001,-3 v 0 c 6.841,0 20.294,-1.61 33.527,-12.388 10.225,-8.329 16.074,-17.53 19.179,-23.781 2.268,-4.565 3.448,-8.271 3.981,-10.23 l -4.065,-3.931 c -5.299,13.243 -14.087,24.529 -25.607,32.826 -2.336,1.683 -4.759,3.264 -7.201,4.701 -10.05,5.911 -19.516,7.544 -25.062,7.95 l 3.021,4.788 C -1.65,-3.03 -0.899,-3 0.001,-3"
             style="fill:#565656;fill-opacity:1;fill-rule:nonzero;stroke:none"
             id="path264" /></g><g
           id="g266"
           transform="translate(306.0459,278.2324)"><path
             d="M 0,0 0.797,0.979 1.775,0.182 0.978,-0.797 Z"
             style="fill:#8e8e8e;fill-opacity:1;fill-rule:nonzero;stroke:none"
             id="path268" /></g><g
           id="g270"
           transform="translate(306.6715,281.1951)"><path
             d="M 0,0 C -0.09,0 -0.179,-0.039 -0.24,-0.114 L -2.723,-3.163 C -2.73,-3.171 -2.729,-3.184 -2.72,-3.191 l 3.273,-2.666 c 0.003,-0.003 0.008,-0.005 0.012,-0.005 0.006,0 0.012,0.003 0.016,0.008 l 2.494,3.062 c 0.102,0.125 0.083,0.309 -0.042,0.411 L 0.195,-0.07 C 0.138,-0.023 0.069,0 0,0"
             style="fill:#565656;fill-opacity:1;fill-rule:nonzero;stroke:none"
             id="path272" /></g><g
           id="g274"
           transform="translate(205.3794,147.5303)"><path
             d="M 0,0 C -1.836,0 -3.55,0.217 -5.107,0.645 -6.125,3.314 -9.066,13.533 -2.8,30.529 4.838,51.246 28.621,91.033 28.861,91.433 l 25.177,39.9 c 1.084,0.128 2.211,0.192 3.361,0.192 7.265,0 15.791,-2.563 24.658,-7.412 4.438,-2.426 8.867,-5.691 13.164,-9.705 7.911,-7.389 13.698,-16.453 16.737,-26.212 0.24,-0.77 0.459,-1.532 0.654,-2.275 L 72.403,48.492 C 72.007,48.122 32.929,11.696 14.412,3.492 14.259,3.419 7.315,0 0,0"
             style="fill:#8e8e8e;fill-opacity:1;fill-rule:nonzero;stroke:none"
             id="path276" /></g><g
           id="g278"
           transform="translate(262.7781,281.0552)"><path
             d="m 0,0 c -1.587,0 -3.107,-0.114 -4.554,-0.335 l -25.7,-40.729 c 0,0 -24.029,-40.105 -31.821,-61.241 -7.793,-21.135 -1.9,-32.217 -1.9,-32.217 2.143,-0.721 4.382,-1.004 6.577,-1.004 7.906,0 15.221,3.665 15.221,3.665 19.044,8.438 58.544,45.364 58.544,45.364 l 41.155,38.309 -0.092,-0.037 c -0.279,1.176 -0.604,2.345 -0.961,3.491 -3.237,10.394 -9.326,19.648 -17.281,27.079 -3.747,3.5 -8.341,7.139 -13.57,9.999 C 15.989,-2.391 7.286,0 0,0 m 0.001,-4 v 0 c 6.93,0 15.125,-2.478 23.697,-7.166 4.293,-2.347 8.586,-5.514 12.759,-9.412 7.658,-7.153 13.257,-15.917 16.193,-25.346 0.109,-0.35 0.213,-0.698 0.313,-1.043 L 13.636,-83.574 c -0.391,-0.365 -39.225,-36.562 -57.433,-44.63 l -0.087,-0.039 -0.077,-0.038 c -0.066,-0.033 -6.621,-3.245 -13.437,-3.245 -1.269,0 -2.467,0.113 -3.58,0.337 -0.374,1.21 -0.834,3.142 -1.032,5.765 -0.336,4.443 0.032,11.82 3.688,21.736 7.47,20.26 30.619,59.095 31.477,60.531 L -2.191,-4.086 C -1.476,-4.029 -0.744,-4 0.001,-4"
             style="fill:#565656;fill-opacity:1;fill-rule:nonzero;stroke:none"
             id="path280" /></g><g
           id="g282"
           transform="translate(211.0449,180.5)"><path
             d="m 0,0 c -0.459,1.112 -0.568,2.849 1.148,5.118 4.023,5.319 24.778,45.383 25.66,47.086 l 0.409,0.791 -0.498,0.738 c -0.344,0.515 -8.339,12.807 3.701,24.246 3.611,3.43 7.759,5.169 12.329,5.169 5.636,0 10.546,-2.649 12.711,-4.022 z"
             style="fill:#706d61;fill-opacity:1;fill-rule:nonzero;stroke:none"
             id="path284" /></g><g
           id="g286"
           transform="translate(253.7941,265.1487)"><path
             d="m 0,0 c -4.255,0 -8.943,-1.383 -13.362,-5.582 -13.151,-12.495 -3.911,-26.173 -3.911,-26.173 0,0 -21.532,-41.593 -25.524,-46.871 -3.992,-5.277 0.083,-8.586 0.083,-8.586 L 14.81,-5.142 C 14.81,-5.142 8.207,0.001 0,0 m 0.002,0 v -3 0 c 4.305,0 8.183,-1.678 10.552,-2.987 l -44.352,-63.278 c 7.291,13.183 17.614,33.089 19.189,36.13 l 0.802,1.578 -0.973,1.469 c -0.315,0.477 -7.6,11.799 3.484,22.331 C -7.974,-4.601 -4.173,-3 0,-3 Z"
             style="fill:#565656;fill-opacity:1;fill-rule:nonzero;stroke:none"
             id="path288" /></g></g></g><path
       style="fill:#ffcc00;fill-opacity:0.162228;stroke-width:9.04373"
       d="m 563.04508,542.63348 c 0.66259,4.51404 3.05138,12.46751 5.30843,17.67439 2.45481,5.66305 3.50001,10.19899 2.60126,11.28865 -0.8793,1.06605 -0.58182,2.581 0.71719,3.65244 1.22082,1.00696 2.64108,1.27076 3.15611,0.58625 0.51504,-0.68453 3.21462,1.72846 5.99907,5.3622 5.55062,7.2436 17.37748,18.00719 21.29241,19.37815 1.36464,0.47788 2.235,1.60357 1.93416,2.50152 -0.6,1.79081 -1.22708,2.14984 -52.77431,30.21538 l -35.69755,19.436 -5.50492,-2.84335 c -8.11015,-4.18899 -17.37702,-13.90001 -22.21943,-23.28437 -4.50192,-8.72455 -8.46477,-24.8574 -7.11436,-28.96278 1.0647,-3.23674 69.1192,-56.81808 78.57917,-61.8677 2.10884,-1.12567 2.71388,-0.0102 3.72277,6.86322 z"
       id="path1179" /><path
       style="fill:#ffcc00;fill-opacity:0.162228;stroke-width:9.04373"
       d="m 476.13248,609.45507 c 1.43487,14.36832 14.83206,35.4139 27.23813,42.78819 l 4.41455,2.62406 -5.20281,2.73204 c -2.86156,1.50261 -5.85822,2.19145 -6.65925,1.53075 -1.69301,-1.39641 -12.4979,3.88881 -13.42322,6.56599 -0.61511,1.77959 -22.85757,11.77889 -33.93715,15.25671 -3.10034,0.9732 -11.06812,3.69235 -17.70618,6.04259 -6.63806,2.35024 -13.52252,3.78626 -15.29879,3.19114 -1.77628,-0.59512 -3.76843,-0.37147 -4.42701,0.49697 -1.72747,2.27798 -9.54237,-5.54927 -10.97021,-10.98753 -1.45548,-5.54356 -0.66961,-6.39721 31.91524,-34.66807 14.1272,-12.25687 25.5178,-22.63417 25.31245,-23.06066 -0.20538,-0.4265 -2.04903,-0.0426 -4.09701,0.85306 -2.04799,0.89569 -3.5672,1.16162 -3.376,0.59097 0.56307,-1.68065 23.61193,-21.52501 24.61181,-21.19002 0.5025,0.16835 1.22496,3.42357 1.60545,7.23381 z m -9.52728,19.30302 c -1.74287,2.11304 0.65217,6.58412 3.20617,5.98534 0.98698,-0.2314 2.21129,-1.66475 2.72071,-3.18522 1.09356,-3.26402 -3.68295,-5.52066 -5.92688,-2.80012 z m -64.377,47.985 c -0.84689,1.49697 -0.29412,2.54243 1.69697,3.20952 1.62412,0.54414 3.23928,0.13479 3.58921,-0.90968 1.46149,-4.36219 -3.0171,-6.31068 -5.28618,-2.29984 z"
       id="path1218" /><path
       style="fill:#ffcc00;fill-opacity:0.162228;stroke-width:9.04373"
       d="m 764.30552,410.21716 c 0.76628,4.77734 3.46913,13.5325 6.00635,19.45588 2.53724,5.92336 4.28488,11.78444 3.88367,13.02457 -0.43823,1.35426 0.40425,2.52714 2.10929,2.93671 1.56134,0.37499 4.9803,3.52909 7.5977,7.009 5.49017,7.29929 15.51194,16.72414 21.72543,20.43141 2.35993,1.40804 4.19011,2.86055 4.06707,3.22777 -0.29515,0.88096 -26.38575,18.74337 -54.17743,37.09152 -31.33964,20.69051 -53.46327,34.31272 -93.09772,57.32318 -18.92941,10.9898 -37.11599,21.5647 -40.41464,23.4998 -5.64915,3.31394 -6.33306,3.3391 -11.77317,0.43287 -7.58991,-4.05471 -22.8077,-19.4374 -28.28891,-28.59547 -4.69392,-7.84265 -9.68285,-23.69588 -10.35065,-32.89105 -0.48635,-6.69691 -4.96703,-2.87458 39.17152,-33.4157 58.60826,-40.55321 110.88407,-74.53032 143.28009,-93.12612 l 8.86819,-5.09049 z"
       id="path1257" /><path
       style="fill:#ffcc00;fill-opacity:0.162228;stroke-width:9.04373"
       d="m 879.7679,344.04391 c 0.26018,3.77026 2.21851,11.03679 4.35185,16.14777 2.13335,5.11098 3.35576,10.49409 2.71648,11.96248 -0.79073,1.81628 -0.3043,2.87994 1.52168,3.32703 1.47622,0.36146 5.5119,3.61315 8.96819,7.22601 3.45632,3.61278 9.53608,8.5333 13.51062,10.93438 l 7.22642,4.36564 -17.26916,13.39471 c -9.49806,7.3671 -23.42077,17.91877 -30.93936,23.44815 l -13.67017,10.0534 -2.09635,-4.64275 c -2.80445,-6.21093 -12.15456,-9.50887 -20.54661,-7.24713 -6.89505,1.85829 -16.51012,10.66387 -16.72237,15.3145 -0.21359,4.68031 4.24523,11.77938 8.23885,13.11737 4.17319,1.39817 3.93442,2.49123 -1.24191,5.68533 -3.73919,2.30731 -4.21877,2.22639 -10.82065,-1.8258 -18.50043,-11.35545 -34.90468,-36.30903 -38.44173,-58.47622 l -1.68126,-10.53661 7.32406,-4.60244 c 4.02822,-2.53133 7.49411,-4.54549 7.70196,-4.47585 0.20784,0.0696 -1.08956,3.54007 -2.88315,7.71203 -3.11049,7.23524 -3.10151,7.90566 0.19448,14.52295 3.05034,6.12415 4.08891,7.04133 8.8579,7.82273 13.12227,2.15008 24.78837,-11.33933 21.66169,-25.04726 -1.40249,-6.1486 -5.52484,-9.50661 -12.80089,-10.42742 l -4.8404,-0.61258 6.83214,-3.6823 c 3.75767,-2.02524 19.61661,-10.8048 35.2421,-19.51021 15.6255,-8.70543 30.82257,-16.94739 33.77128,-18.31555 l 5.36125,-2.48747 z"
       id="path1296" /><path
       style="fill:#ffcc00;fill-opacity:0.162228;stroke-width:9.04373"
       d="m 1026.2162,293.41274 c -1.4133,4.21847 -4.7219,10.58682 -7.3524,14.15198 -4.2455,5.75389 -4.895,6.13503 -5.7825,3.393 -0.6596,-2.03726 -1.6267,-2.75961 -2.8406,-2.12153 -1.6887,0.88764 -75.19664,54.89549 -78.82714,57.916 -1.77917,1.48022 1.70754,5.79132 7.36822,9.11027 l 3.63343,2.13043 -4.37018,3.68428 c -3.72232,3.13813 -5.18947,3.4098 -9.89685,1.83266 -13.53625,-4.53513 -30.75778,-29.43848 -32.38299,-46.8278 l -0.72034,-7.7075 14.73487,-6.67044 c 74.73261,-33.8315 100.81808,-42.65496 113.52128,-38.39895 l 5.485,1.83766 z"
       id="path1335" /><path
       style="fill:#ffd42a;fill-opacity:0.162228;stroke-width:9.04373"
       d="m 1025.2866,294.46678 c -4.8086,10.61429 -11.2043,19.48323 -11.9025,16.50527 -0.2623,-1.11901 -1.0425,-2.22405 -1.7336,-2.45563 -1.1413,-0.38235 -26.06323,17.37227 -66.31225,47.2414 -16.33186,12.11999 -17.21474,13.84165 -9.47461,18.4759 5.42085,3.24563 5.33471,5.08023 -0.37199,7.92266 -4.23353,2.10865 -5.68545,2.06942 -9.89667,-0.26725 -11.98128,-6.64801 -26.27223,-28.17665 -29.02321,-43.72201 l -1.52089,-8.59434 13.68989,-6.22371 c 71.06019,-32.30558 98.32903,-41.60042 114.27143,-38.95036 l 6.357,1.0567 z"
       id="path1411" /><path
       style="fill:#ffd42a;fill-opacity:0.162228;stroke-width:9.04373"
       d="m 879.76067,344.69468 c 0.40791,3.42015 2.10928,10.24109 3.7809,15.15751 1.67159,4.91649 2.87317,10.18308 2.67015,11.70366 -0.23012,1.72362 1.9813,4.65086 5.87323,7.7742 3.43329,2.75531 9.32678,7.50585 13.09668,10.55675 3.76988,3.05087 7.96895,5.94379 9.33125,6.42862 1.36229,0.48489 2.34786,1.26673 2.19018,1.73736 -0.30688,0.91597 -46.50024,36.27049 -54.90149,42.01939 l -5.03066,3.44245 -2.64966,-4.03546 c -3.68682,-5.61503 -12.99061,-8.5225 -20.56833,-6.42766 -6.22906,1.72201 -15.48599,9.01533 -16.99581,13.39058 -1.21276,3.51431 3.93577,13.47393 7.59975,14.70149 3.45469,1.15745 2.84664,4.44918 -1.10446,5.97914 -4.25451,1.64745 -12.96776,-3.42047 -22.96804,-13.359 -10.90788,-10.84051 -22.68004,-33.12033 -25.11675,-47.53562 l -1.6357,-9.67658 6.80551,-4.18667 6.80553,-4.18671 -2.57606,7.68891 c -2.28748,6.82757 -2.22077,8.37508 0.59549,13.81465 4.30944,8.3236 10.07739,10.20055 19.0634,6.20339 5.60206,-2.49191 7.24386,-4.1511 9.81176,-9.91564 2.12219,-4.76401 2.83301,-8.53957 2.27942,-12.10686 -1.00084,-6.44883 -2.21358,-7.93909 -9.22168,-11.33202 l -5.58776,-2.70523 37.65448,-20.6515 c 20.70999,-11.35838 38.19509,-20.66196 38.85579,-20.67465 0.66071,-0.0127 1.53501,2.77528 1.94288,6.1955 z"
       id="path1450" /><path
       style="fill:#ffd42a;fill-opacity:0.162228;stroke-width:9.04373"
       d="m 763.47497,408.68404 c 0.57309,3.43186 2.84797,11.14449 5.05531,17.13915 2.20734,5.99469 4.3439,12.97056 4.74791,15.50194 0.40401,2.53138 1.68558,4.92114 2.84793,5.31057 1.16235,0.38943 6.44639,5.30867 11.74227,10.93167 5.29589,5.62299 12.08633,11.93164 15.08986,14.01921 3.00354,2.08758 5.29893,4.27926 5.10088,4.87041 -0.43592,1.30109 -48.41488,33.84579 -75.21155,51.01686 -20.97423,13.44012 -54.18453,33.38181 -91.13273,54.72219 -28.76504,16.61399 -28.78118,16.61387 -45.77017,-0.32615 -8.86341,-8.83788 -12.22368,-13.53395 -16.39439,-22.9117 -7.0144,-15.77168 -9.24425,-28.22158 -5.72932,-31.98847 3.98374,-4.26932 85.24333,-59.93778 122.58507,-83.97928 27.19747,-17.51038 65.07141,-40.86627 65.84726,-40.60634 0.0989,0.0332 0.64859,2.86808 1.22167,6.29994 z"
       id="path1567" /><path
       style="fill:#ffd42a;fill-opacity:0.162228;stroke-width:9.04373"
       d="m 562.73172,543.49105 c 0.85146,4.05819 3.083,11.36752 4.95898,16.24293 1.87599,4.87542 3.15546,10.2578 2.84329,11.96085 -0.38689,2.11056 0.54263,3.54635 2.91937,4.50942 1.91784,0.77713 8.13445,6.24604 13.8147,12.15313 5.68024,5.9071 11.54554,11.14817 13.03398,11.64685 1.48846,0.49868 2.86727,1.59334 3.06401,2.43256 0.19676,0.83922 -19.31694,12.30131 -43.3638,25.47132 -43.10901,23.61 -43.79248,23.91462 -48.78598,21.74291 -12.99947,-5.65353 -26.22125,-25.08444 -29.27353,-43.0208 l -1.51092,-8.87875 10.46641,-8.71477 c 16.71786,-13.92002 64.778,-50.79158 67.65746,-51.90657 2.16274,-0.83747 2.902,0.28858 4.17603,6.36092 z"
       id="path1606" /><path
       style="fill:#ffd42a;fill-opacity:0.162228;stroke-width:9.04373"
       d="m 475.41133,609.17016 c 0.60751,8.73751 11.05956,28.131 19.56121,36.29531 4.21427,4.04705 8.48585,7.63476 9.49239,7.97267 3.15453,1.05899 -2.6602,5.29634 -6.82486,4.97344 -2.04958,-0.15891 -10.14919,3.33246 -17.99913,7.75858 -14.1884,8.00001 -43.9901,19.71125 -57.24103,22.49412 -11.18779,2.34959 -15.50384,1.19628 -19.39775,-5.18335 -2.76655,-4.53258 -2.96986,-6.14557 -1.17016,-9.28386 1.19797,-2.089 13.99311,-14.2579 28.43365,-27.042 14.44054,-12.78411 26.75194,-23.68853 27.35865,-24.23206 0.60671,-0.54354 -0.51252,-1.01401 -2.48719,-1.04552 l -3.5903,-0.0573 5.12781,-4.40639 c 12.6546,-10.87421 16.64389,-14.00785 17.47964,-13.73049 0.4928,0.16404 1.05863,2.63268 1.25707,5.48681 z m -8.96973,19.00887 c -1.93633,1.611 0.82776,7.16038 3.28011,6.58542 3.2763,-0.76813 3.99727,-5.8834 0.97208,-6.89695 -1.52047,-0.50941 -3.43395,-0.36922 -4.25219,0.31153 z m -64.21339,48.56406 c -0.8469,1.49697 -0.29413,2.54243 1.69696,3.20952 1.62412,0.54414 3.23929,0.13479 3.58922,-0.90968 1.46149,-4.36218 -3.01711,-6.31068 -5.28618,-2.29984 z"
       id="path1645" /><path
       style="fill:#ffcc00;fill-opacity:0.162228;stroke-width:4.78772"
       d="m 475.90638,609.32849 c 0.48278,3.34753 1.91866,8.76372 3.19083,12.036 4.53151,11.65584 15.28953,25.6018 23.78774,30.83677 2.00729,1.23651 3.57734,2.464 3.48898,2.72775 -0.38575,1.15134 -9.14795,4.39123 -10.57916,3.91173 -1.87946,-0.62969 -13.4267,4.56176 -13.11394,5.8958 0.39414,1.6811 -22.39934,11.83311 -40.10676,17.8632 -18.5138,6.30469 -24.82172,7.96029 -27.24098,7.14975 -0.81737,-0.27386 -2.31168,-0.22041 -3.32067,0.11873 -2.73137,0.91813 -4.64947,-0.005 -7.63019,-3.6738 -3.33581,-4.10541 -4.77013,-7.97873 -3.90733,-10.55148 0.99061,-2.95437 6.11246,-7.92946 26.7142,-25.94998 22.19033,-19.4101 31.12813,-27.72918 30.14529,-28.05847 -0.39574,-0.13258 -1.80959,0.14851 -3.14189,0.62464 -1.3323,0.47614 -2.65398,0.7881 -2.93709,0.69326 -0.2831,-0.0949 1.80942,-2.31854 4.65003,-4.94155 7.79174,-7.19483 17.70103,-15.24524 18.45466,-14.99275 0.36766,0.12319 1.06348,2.96286 1.54628,6.31038 z m -7.65069,18.15138 c -1.59024,0.0686 -2.97661,3.57715 -2.10497,5.32711 1.07627,2.16078 3.98736,2.529 5.49096,0.69453 2.53003,-3.08677 0.77869,-6.20135 -3.38599,-6.02164 z m -65.91627,48.77475 c -1.3662,1.87136 -0.56883,3.27465 2.1946,3.8622 2.66406,0.56644 4.23409,-1.66082 2.96575,-4.20725 -0.9893,-1.98621 -3.58511,-1.81264 -5.16035,0.34505 z"
       id="path2009" /><path
       style="fill:#ffcc00;fill-opacity:0.162228;stroke-width:4.78772"
       d="m 562.69222,542.28197 c 1.2901,6.25067 2.24794,9.42953 6.47823,21.49979 1.06928,3.05098 1.67807,6.34143 1.35285,7.31214 -0.89547,2.67274 0.58851,4.98565 3.39222,5.28702 1.91559,0.2059 3.51102,1.54831 8.54603,7.19078 6.25931,7.01447 15.648,15.58022 17.95132,16.37783 2.06866,0.71639 3.35379,2.08442 2.98686,3.17961 -0.49072,1.46467 -7.78046,5.64739 -49.75523,28.54869 -25.1362,13.71425 -37.72741,20.14923 -38.95661,19.90956 -5.65015,-1.10164 -16.51578,-10.31938 -22.93162,-19.45379 -5.21822,-7.42929 -9.79613,-20.20919 -10.78491,-30.10743 -0.36966,-3.70058 -0.36286,-3.71924 2.36237,-6.49876 9.33931,-9.52539 73.77502,-59.48836 76.96603,-59.67892 0.62412,-0.0372 1.59676,2.57818 2.39246,6.43348 z"
       id="path2048" /><path
       style="fill:#ffcc00;fill-opacity:0.162228;stroke-width:4.78772"
       d="m 763.26048,406.01373 c 0.74649,5.77041 3.37132,15.10715 6.49112,23.08923 3.44829,8.82258 4.51418,12.57169 3.754,13.20415 -1.03023,0.85712 1.05126,3.64808 3.25978,4.37084 1.17929,0.3856 4.70609,3.73348 8.27187,7.85132 7.31063,8.44243 11.62749,12.48564 18.45634,17.28641 2.75018,1.9334 5.17022,3.81111 5.37788,4.17267 0.64312,1.11981 -51.10323,36.05377 -85.18745,57.51003 -22.07543,13.89665 -90.05448,54.14097 -102.52607,60.69651 l -5.19717,2.73184 -3.9632,-1.84565 c -9.0753,-4.22638 -24.51757,-20.09652 -30.6352,-31.48403 -5.65349,-10.52352 -10.89664,-29.95788 -9.31869,-34.54074 0.89865,-2.60985 4.72269,-5.4532 40.4215,-30.05501 55.21535,-38.05162 98.13394,-66.12703 130.73947,-85.52392 8.38848,-4.99026 16.2096,-9.66254 17.38026,-10.38285 l 2.12849,-1.30964 z"
       id="path2087" /><path
       style="fill:#ffcc00;fill-opacity:0.162228;stroke-width:4.78772"
       d="m 879.44742,343.11345 c 0.26202,2.96734 2.07036,10.20757 4.01854,16.08941 1.95426,5.90017 3.29152,11.44231 2.98304,12.36303 -0.72281,2.15741 0.19147,3.93297 2.40742,4.67539 0.96974,0.32489 4.55569,3.19503 7.96878,6.37798 6.866,6.40298 12.74272,10.94114 17.36889,13.41255 2.11455,1.12966 2.82376,1.89422 2.32167,2.50297 -1.45198,1.76037 -56.86506,43.98287 -59.87263,45.62048 -0.18354,0.0999 -1.12355,-1.40402 -2.0889,-3.34214 -0.96536,-1.93812 -2.87481,-4.36103 -4.24319,-5.38425 -3.20897,-2.39949 -9.65109,-3.83692 -14.1681,-3.16136 -7.72421,1.15526 -18.66645,9.98231 -19.38187,15.63524 -0.64156,5.06938 2.89667,10.82772 8.61145,14.01479 2.54646,1.42013 2.56369,1.47972 0.89594,3.09775 -2.63548,2.55688 -5.61264,3.53254 -8.05006,2.63811 -4.2362,-1.55454 -12.80343,-7.92481 -18.37902,-13.66595 -13.6996,-14.10638 -22.87772,-32.51562 -25.58298,-51.31374 l -0.91292,-6.3436 6.60588,-4.10455 6.60586,-4.10456 -2.08219,7.46638 c -2.33647,8.37823 -2.07254,10.63623 1.9677,16.83452 1.7651,2.70791 2.91635,3.64125 5.48116,4.44367 6.27802,1.96415 12.20798,0.47407 17.42703,-4.37904 6.42304,-5.9727 8.73067,-14.91783 5.74867,-22.28384 -1.92175,-4.74705 -5.02394,-7.1898 -10.61729,-8.36029 -2.31275,-0.48402 -4.1443,-1.06127 -4.0701,-1.28273 0.17399,-0.51928 68.382,-37.99341 74.17498,-40.75244 l 4.38578,-2.08881 z"
       id="path2126" /><path
       style="fill:#ffcc00;fill-opacity:0.162228;stroke-width:4.78772"
       d="m 1025.3545,294.19154 c -2.7361,6.8974 -7.9445,15.75196 -10.5874,17.99952 -0.3212,0.27304 -1.1234,-0.50696 -1.7828,-1.73344 -0.6595,-1.22642 -1.647,-2.12483 -2.1947,-1.9965 -0.9969,0.23377 -24.26269,17.07053 -54.28805,39.28658 -8.79643,6.50858 -18.16723,13.43741 -20.82401,15.39749 -2.65681,1.96007 -4.94453,3.90395 -5.08384,4.31977 -0.45126,1.34691 2.9792,5.26868 6.72853,7.69216 2.0113,1.29999 3.65632,2.74786 3.65561,3.21738 -0.002,1.60652 -7.08338,5.69388 -9.60745,5.54579 -5.49279,-0.32233 -14.51825,-7.2282 -21.60411,-16.5306 -7.78861,-10.22504 -13.3533,-23.58732 -13.97502,-33.55782 l -0.28735,-4.60839 6.27003,-2.92145 c 10.32104,-4.80903 33.02573,-14.88674 48.12005,-21.3586 29.64401,-12.71022 48.23011,-19.22946 59.69501,-20.93856 6.3439,-0.94568 8.1809,-0.87292 13.1646,0.52158 l 5.7921,1.62059 z"
       id="path2165" /><path
       style="fill:#ffcc00;fill-opacity:0.162228;stroke-width:4.78772"
       d="m 1013.7287,314.53692 c -2.7614,3.36897 -22.87408,22.85111 -32.76699,31.73963 -6.9707,6.26301 -10.19933,8.71174 -10.24013,7.76669 -0.0665,-1.54231 26.65093,-27.38003 37.28512,-36.05756 1.5105,-1.23251 3.2599,-3.04367 3.8878,-4.02486 0.6277,-0.98114 1.605,-1.62847 2.1719,-1.43856 0.7918,0.26527 0.7135,0.73215 -0.3377,2.01466 z"
       id="path2243" /></g></svg>
