<?xml version="1.0" encoding="UTF-8" standalone="no"?>
<!-- Created with Inkscape (http://www.inkscape.org/) -->

<svg
   version="1.1"
   id="svg2"
   xml:space="preserve"
   width="1440"
   height="1440"
   viewBox="0 0 1440 1440"
   sodipodi:docname="Glider gray.svg"
   inkscape:version="1.1.2 (0a00cf5339, 2022-02-04)"
   xmlns:inkscape="http://www.inkscape.org/namespaces/inkscape"
   xmlns:sodipodi="http://sodipodi.sourceforge.net/DTD/sodipodi-0.dtd"
   xmlns="http://www.w3.org/2000/svg"
   xmlns:svg="http://www.w3.org/2000/svg"><defs
     id="defs6"><clipPath
       clipPathUnits="userSpaceOnUse"
       id="clipPath16"><path
         d="M 0,1080 H 1080 V 0 H 0 Z"
         id="path14" /></clipPath></defs><sodipodi:namedview
     id="namedview4"
     pagecolor="#ffffff"
     bordercolor="#666666"
     borderopacity="1.0"
     inkscape:pageshadow="2"
     inkscape:pageopacity="0.0"
     inkscape:pagecheckerboard="0"
     showgrid="false"
     inkscape:zoom="0.94316065"
     inkscape:cx="720.44991"
     inkscape:cy="719.91977"
     inkscape:window-width="2560"
     inkscape:window-height="1295"
     inkscape:window-x="0"
     inkscape:window-y="32"
     inkscape:window-maximized="1"
     inkscape:current-layer="g8" /><g
     id="g8"
     inkscape:groupmode="layer"
     inkscape:label="Glider gray"
     transform="matrix(1.3333333,0,0,-1.3333333,0,1440)"><g
       id="g10"><g
         id="g12"
         clip-path="url(#clipPath16)"><g
           id="g18"
           transform="translate(914,1027.728)"><path
             d="m 0,0 c 0,0 -4.733,-2.489 -24.764,-26.721 -20.031,-24.232 -80.717,-97.634 -80.717,-97.634 l 2.051,-3.061 81.679,97.993 c 0,0 16.542,19.686 21.751,29.423"
             style="fill:#b2b2b2;fill-opacity:1;fill-rule:nonzero;stroke:none"
             id="path20" /></g><g
           id="g22"
           transform="translate(892.9153,1000.9537)"><path
             d="m 0,0 c 10.778,13.354 15.941,20.748 18.319,24.514 2.046,1.878 2.766,2.26 2.766,2.26 C 15.876,17.038 -0.666,-2.649 -0.666,-2.649 l -81.679,-97.993 -0.577,0.862 C -71.398,-86.016 -15.805,-19.582 0,0"
             style="fill:#565656;fill-opacity:1;fill-rule:nonzero;stroke:none"
             id="path24" /></g><g
           id="g26"
           transform="translate(711.5381,775.8247)"><path
             d="m 0,0 c -1.217,2.083 -3.223,4.202 -6.227,5.191 l 91.294,113.144 6.805,-5.542 z"
             style="fill:#8e8e8e;fill-opacity:1;fill-rule:nonzero;stroke:none"
             id="path28" /></g><g
           id="g30"
           transform="translate(796.3108,896.9796)"><path
             d="m 0,0 -94.719,-117.389 c 7.737,-0.006 9.374,-7.636 9.374,-7.636 L 9.913,-8.074 Z M 0.59,-5.639 4.286,-8.65 -84.68,-117.875 c -0.862,0.99 -1.905,1.91 -3.148,2.656 z"
             style="fill:#565656;fill-opacity:1;fill-rule:nonzero;stroke:none"
             id="path32" /></g><g
           id="g34"
           transform="translate(679.5176,725.416)"><path
             d="m 0,0 c -1.464,2.638 -3.728,5.672 -7.138,8.067 -3.628,2.547 -7.75,3.656 -11.239,4.348 5.892,3.342 15.813,10.076 25.945,21.885 10.992,12.809 14.787,17.203 16.065,18.675 1.596,-0.184 4.786,-1.064 6.259,-5.105 C 25.722,43.129 6.379,20.415 0,0"
             style="fill:#8e8e8e;fill-opacity:1;fill-rule:nonzero;stroke:none"
             id="path36" /></g><g
           id="g38"
           transform="translate(702.4429,780.4371)"><path
             d="m 0,0 c -0.106,0 -0.164,-0.003 -0.164,-0.003 0,0 -1.236,-1.381 -16.71,-19.416 -15.475,-18.034 -30.589,-24.042 -30.589,-24.042 4.001,-1 10.747,-1.266 16.25,-5.13 6.994,-4.911 8.751,-12.87 8.751,-12.87 4.11,23.363 31.673,53.823 31.673,53.823 C 7.297,-0.325 1.088,0 0,0 m 1.481,-4.208 c 1.041,-0.298 2.27,-0.998 3.142,-2.59 -5.164,-5.978 -21.021,-25.211 -28.104,-43.756 -1.411,1.835 -3.194,3.664 -5.433,5.237 -2.351,1.65 -4.853,2.734 -7.27,3.495 6.023,3.912 14.135,10.23 22.345,19.799 9.386,10.938 13.524,15.738 15.32,17.815"
             style="fill:#565656;fill-opacity:1;fill-rule:nonzero;stroke:none"
             id="path40" /></g><g
           id="g42"
           transform="translate(794.6625,894.9559)"><path
             d="m 0,0 c 0,0 3.152,0.014 6.456,-2.678 3.305,-2.691 3.752,-4.915 3.752,-4.915 0,0 5.028,3.308 6.911,6.438 2.22,3.689 3.495,8.147 0.144,11.168 C 13.815,13.121 8.916,10.962 6.559,9.017 4.165,7.041 0.792,1.936 0,0"
             style="fill:#565656;fill-opacity:1;fill-rule:nonzero;stroke:none"
             id="path44" /></g><g
           id="g46"
           transform="translate(790.4773,877.3304)"><path
             d="M 0,0 C 0.912,-0.743 2.255,-0.606 2.998,0.306 3.741,1.219 3.604,2.561 2.691,3.304 1.779,4.048 0.437,3.91 -0.306,2.998 -1.05,2.085 -0.912,0.743 0,0"
             style="fill:#565656;fill-opacity:1;fill-rule:nonzero;stroke:none"
             id="path48" /></g><g
           id="g50"
           transform="translate(804.6935,893.2927)"><path
             d="M 0,0 C 0.912,-0.743 2.255,-0.606 2.998,0.306 3.741,1.219 3.604,2.561 2.691,3.304 1.779,4.048 0.437,3.91 -0.306,2.998 -1.05,2.085 -0.912,0.743 0,0"
             style="fill:#b2b2b2;fill-opacity:1;fill-rule:nonzero;stroke:none"
             id="path52" /></g><g
           id="g54"
           transform="translate(659.2816,735.1244)"><path
             d="m 0,0 c -1.063,-0.118 -1.792,-1.12 -1.567,-2.165 0.432,-1.999 2.092,-5.475 7.878,-9.783 5.755,-4.286 9.576,-3.945 11.427,-3.293 0.837,0.295 1.319,1.186 1.125,2.052 -0.419,1.87 -1.838,5.432 -6.615,9.323 C 7.331,0.139 2.458,0.273 0,0"
             style="fill:#174477;fill-opacity:1;fill-rule:nonzero;stroke:none"
             id="path56" /></g><g
           id="g58"
           transform="translate(549.2324,737.0889)"><path
             d="m 0,0 14.642,19.702 76.93,-39.631 -61.83,-45.398 z"
             style="fill:#706d61;fill-opacity:1;fill-rule:nonzero;stroke:none"
             id="path60" /></g><g
           id="g62"
           transform="translate(563.2813,759.3458)"><path
             d="m 0,0 -16.358,-22.011 31.251,-68.642 66.418,48.766 z m 1.186,-5.11 72.552,-37.375 -57.245,-42.03 -28.232,62.012 z"
             style="fill:#565656;fill-opacity:1;fill-rule:nonzero;stroke:none"
             id="path64" /></g><g
           id="g66"
           transform="translate(677.9336,718.1641)"><path
             d="M 0,0 81.753,-40.366 66.979,-58.505 -37.647,-65.062 Z"
             style="fill:#706d61;fill-opacity:1;fill-rule:nonzero;stroke:none"
             id="path68" /></g><g
           id="g70"
           transform="translate(677.1409,720.7862)"><path
             d="m 0,0 -40.456,-69.913 109.226,6.845 16.911,20.762 z M 1.587,-5.244 79.411,-43.67 66.773,-59.186 -33.254,-65.454 Z"
             style="fill:#565656;fill-opacity:1;fill-rule:nonzero;stroke:none"
             id="path72" /></g><g
           id="g74"
           transform="translate(570.6401,666.1918)"><path
             d="m 0,0 c 0,0 -7.96,-12.611 21.84,-35.849 29.8,-23.238 36.222,-11.444 36.222,-11.444 0,0 6.046,17.063 -20.686,37.266 C 10.644,10.176 0,0 0,0"
             style="fill:#0b131f;fill-opacity:1;fill-rule:nonzero;stroke:none"
             id="path76" /></g><g
           id="g78"
           transform="translate(596.7985,637.8184)"><path
             d="m 0,0 c -11.405,9.289 -18.326,19.673 -15.459,23.192 2.867,3.52 14.436,-1.157 25.84,-10.447 C 21.786,3.456 28.707,-6.927 25.84,-10.447 22.974,-13.966 11.405,-9.289 0,0 M -3.191,-3.682 C 11.017,-15.255 25.978,-20.41 30.225,-15.196 34.472,-9.982 26.397,3.627 12.188,15.2 -2.02,26.773 -16.981,31.928 -21.228,26.714 -25.475,21.499 -17.4,7.891 -3.191,-3.682"
             style="fill:#98a0ac;fill-opacity:1;fill-rule:nonzero;stroke:none"
             id="path80" /></g><g
           id="g82"
           transform="translate(570.0488,662.2671)"><path
             d="m 0,0 c 6.231,6.37 29.586,29.876 52.635,48.37 23.788,19.087 31.781,23.928 33.192,24.732 0.336,0.045 0.989,0.115 1.875,0.115 2.658,0 7.905,-0.641 13.179,-4.936 4.883,-3.977 6.779,-8.828 7.31,-10.474 -2.663,-6.328 -24.614,-57.803 -50.79,-99.211 z"
             style="fill:#8e8e8e;fill-opacity:1;fill-rule:nonzero;stroke:none"
             id="path84" /></g><g
           id="g86"
           transform="translate(657.751,737.4841)"><path
             d="m 0,0 c -1.584,0 -2.534,-0.196 -2.534,-0.196 0,0 -6.59,-3.271 -33.786,-25.091 -27.196,-21.822 -54.431,-50.197 -54.431,-50.197 l 61,-44 c 28.73,44.913 52.358,101.951 52.358,101.951 0,0 -1.557,6.765 -8.166,12.148 C 8.778,-0.773 3.142,0 0,0 m 0,-4 c 2.393,0 7.122,-0.583 11.915,-4.487 3.929,-3.2 5.74,-7.019 6.433,-8.854 -3.639,-8.589 -24.412,-56.73 -49.208,-96.411 l -53.783,38.794 c 7.977,8.084 29.54,29.471 50.826,46.551 22.513,18.063 30.634,23.209 32.573,24.351 C -0.943,-4.027 -0.52,-4 0,-4"
             style="fill:#565656;fill-opacity:1;fill-rule:nonzero;stroke:none"
             id="path88" /></g><g
           id="g90"
           transform="translate(620.8298,653.5797)"><path
             d="M 0,0 C 1.304,-1.062 3.221,-0.866 4.283,0.438 5.344,1.741 5.148,3.659 3.845,4.721 2.541,5.782 0.624,5.586 -0.438,4.283 -1.5,2.979 -1.304,1.062 0,0"
             style="fill:#565656;fill-opacity:1;fill-rule:nonzero;stroke:none"
             id="path92" /></g><g
           id="g94"
           transform="translate(654.1169,730.1168)"><path
             d="M 0,0 C 1.043,-0.849 2.577,-0.693 3.426,0.35 4.276,1.393 4.119,2.927 3.076,3.776 2.033,4.626 0.499,4.469 -0.35,3.426 -1.2,2.383 -1.043,0.849 0,0"
             style="fill:#565656;fill-opacity:1;fill-rule:nonzero;stroke:none"
             id="path96" /></g><g
           id="g98"
           transform="translate(667.8065,718.9665)"><path
             d="M 0,0 C 1.043,-0.849 2.577,-0.693 3.426,0.35 4.276,1.393 4.119,2.927 3.076,3.776 2.033,4.626 0.499,4.469 -0.35,3.426 -1.2,2.383 -1.043,0.849 0,0"
             style="fill:#565656;fill-opacity:1;fill-rule:nonzero;stroke:none"
             id="path100" /></g><g
           id="g102"
           transform="translate(635.4672,717.8244)"><path
             d="m 0,0 -11.399,6.132 c -0.149,0.08 -0.3,0.155 -0.453,0.224 -2.219,1.004 -4.821,0.652 -6.824,-0.735 L -21.17,3.894 -36.489,-8.488 c -1.987,-1.606 -3.371,-3.837 -3.929,-6.33 l -4.781,-21.393 c 0,0 -0.781,-2.335 -2.227,-3.666 -0.465,-0.427 -0.605,-1.101 -0.311,-1.661 l 1.141,-2.173 10.732,9.32 c -1.921,1.095 -2.922,3.298 -2.485,5.465 l 1.853,9.184 c 0.386,3.004 1.726,6.888 4.263,9.09 l 9.491,8.76 c 2.779,2.448 6.03,4.511 8.545,3.26 v 0 L -9.81,-1.01 c 1.515,-0.821 1.954,-2.817 0.882,-4.165 -0.018,-0.024 -0.037,-0.047 -0.056,-0.071 l 1.031,-1.625 z"
             style="fill:#b2b2b2;fill-opacity:1;fill-rule:nonzero;stroke:none"
             id="path104" /></g><g
           id="g106"
           transform="translate(672.6045,708.0112)"><path
             d="M 0,0 48.938,29.59 44.133,22.159 -26.904,-45.752 Z"
             style="fill:#8e8e8e;fill-opacity:1;fill-rule:nonzero;stroke:none"
             id="path108" /></g><g
           id="g110"
           transform="translate(727.9332,743.8037)"><path
             d="m 0,0 -56.796,-34.343 -34.452,-58.588 81.604,78.015 z m -12.84,-12.438 -60.377,-57.722 19.356,32.918 z"
             style="fill:#565656;fill-opacity:1;fill-rule:nonzero;stroke:none"
             id="path112" /></g><g
           id="g114"
           transform="translate(492.6911,582.7862)"><path
             d="m 0,0 c 0,0 -1.66,-5.656 12.555,-21.946 10.466,-11.993 24.408,-22.557 32.274,-27.858 4.154,-2.8 11.004,-6.128 15.764,-7.689 4.141,-1.357 9.009,-2.748 11.159,-0.95 4.317,3.61 -17.942,35.089 -17.942,35.089 L 34.071,-8.062 14.264,-0.566 4.107,1.425 C 4.107,1.425 1.626,1.758 0,0"
             style="fill:#9fa7b3;fill-opacity:1;fill-rule:nonzero;stroke:none"
             id="path116" /></g><g
           id="g118"
           transform="translate(565.1387,528.6465)"><path
             d="m 0,0 c -2.671,7.374 -9.987,23.963 -25.137,36.303 -15.453,12.587 -32.942,17.874 -43.244,19.4 11.118,12.475 55.318,61.829 74.714,79.887 0.247,0.009 0.561,0.016 0.935,0.016 4.492,0 16.294,-0.961 28.84,-9.86 C 50.339,115.652 58.443,101.129 61.403,90.579 57.356,84.188 27.859,37.826 0,0"
             style="fill:#8e8e8e;fill-opacity:1;fill-rule:nonzero;stroke:none"
             id="path120" /></g><g
           id="g122"
           transform="translate(572.4071,666.2523)"><path
             d="m 0,0 c -1.138,0 -1.767,-0.06 -1.767,-0.06 -22.144,-20.44 -77.949,-83.406 -77.949,-83.406 9.509,-0.62 29.047,-5.54 46.048,-19.388 19.354,-15.764 25.704,-39.055 25.704,-39.055 30.881,41.532 64.259,94.556 64.259,94.556 -2.851,10.96 -11.367,26.534 -26.298,37.124 C 16.902,-0.94 4.488,0 0,0 m 0,-4 v 0 c 4.301,0 15.607,-0.925 27.683,-9.491 13.414,-9.515 21.305,-23.458 24.278,-33.23 -5.355,-8.439 -32.443,-50.833 -58.689,-86.766 -3.525,8.527 -10.954,22.771 -24.414,33.735 -14.097,11.482 -29.886,17.024 -40.627,19.193 13.868,15.523 53.24,59.287 71.64,76.559 0.043,0 0.085,0 0.129,0"
             style="fill:#565656;fill-opacity:1;fill-rule:nonzero;stroke:none"
             id="path124" /></g><g
           id="g126"
           transform="translate(494.6136,585.1465)"><path
             d="m 0,0 c 0,0 -1.66,-5.656 12.555,-21.946 10.466,-11.993 24.408,-22.557 32.274,-27.858 4.154,-2.8 11.004,-6.128 15.764,-7.689 4.141,-1.357 9.524,-3.226 11.159,-0.95 1.45,2.019 -19.48,33.201 -19.48,33.201 L 32.621,-10.807 13.967,-1.895 3.81,0.096 C 3.81,0.096 1.626,1.758 0,0"
             style="fill:#9fa7b3;fill-opacity:1;fill-rule:nonzero;stroke:none"
             id="path128" /></g><g
           id="g130"
           transform="translate(559.9847,543.9747)"><path
             d="m 0,0 c 2.964,-5.02 4.511,-9.946 5.471,-13.33 l -4.108,-2.151 -21.311,9.506 -15.227,9.262 -14.337,13.248 -11.14,13.225 -2.534,10.476 18.128,-3.772 c 0.756,-4.537 3.819,-11.636 17.486,-22.17 C -17.043,6.179 -7.03,2.069 0,0"
             style="fill:#23221e;fill-opacity:1;fill-rule:nonzero;stroke:none"
             id="path132" /></g><g
           id="g134"
           transform="translate(558.3403,532.5137)"><path
             d="m 0,0 c 1.578,-0.495 3.129,-0.978 5.349,-0.653 1.525,-3.441 2.141,-6.079 1.073,-6.996 -2.126,-1.825 -7.012,-0.497 -11.17,0.807 -4.779,1.499 -11.671,4.74 -15.86,7.486 -7.934,5.2 -22.011,15.584 -32.63,27.442 -14.422,16.106 -12.835,21.783 -12.835,21.783 1.603,1.779 4.089,1.477 4.089,1.477 l 5.284,-0.452 c -0.209,-2.185 2.02,-9.221 8.132,-16.046 C -37.949,22.99 -25.838,13.033 -17.71,8.143 -10.332,3.704 -4.779,1.499 0,0"
             style="fill:#424038;fill-opacity:1;fill-rule:nonzero;stroke:none"
             id="path136" /></g><g
           id="g138"
           transform="translate(538,562)"><path
             d="m 0,0 c -17,13.847 -35.8,20.167 -45.309,20.786 0,0 1.13,1.274 3.126,3.515 5.407,-0.299 15.896,-1.869 28.926,-8.754 19.645,-10.381 29.179,-22.982 33.306,-29.484 3.561,-5.611 7.059,-13.802 8.706,-20.594 -0.772,-1.048 -1.543,-2.091 -2.312,-3.126 0,0 -7.089,21.893 -26.443,37.657"
             style="fill:#565656;fill-opacity:1;fill-rule:nonzero;stroke:none"
             id="path140" /></g><g
           id="g142"
           transform="translate(542.4746,565.0933)"><path
             d="M 0,0 2.494,3.062 C 2.596,3.187 2.577,3.371 2.452,3.473 L -0.386,5.785 C -0.518,5.893 -0.713,5.873 -0.821,5.74 L -3.304,2.691 C -3.311,2.683 -3.31,2.67 -3.301,2.663 l 3.272,-2.666 C -0.02,-0.01 -0.007,-0.009 0,0"
             style="fill:#565656;fill-opacity:1;fill-rule:nonzero;stroke:none"
             id="path144" /></g><g
           id="g146"
           transform="translate(605.351,653.8099)"><path
             d="m 0,0 -1.183,-1.4 c -0.686,-0.813 -0.584,-2.028 0.228,-2.715 l 0.226,-0.19 c 0.861,-0.728 2.148,-0.619 2.875,0.241 l 1.097,1.298 z"
             style="fill:#565656;fill-opacity:1;fill-rule:nonzero;stroke:none"
             id="path148" /></g><g
           id="g150"
           transform="translate(415.7754,338.9531)"><path
             d="m 0,0 c -2.972,7.689 -12.042,27.252 -31.905,42.157 -17.417,13.071 -33.981,15.862 -41.287,16.435 8.426,11.38 39.053,52.478 67.995,88.011 36.556,44.881 77.417,89.214 82.948,95.19 1.739,-0.116 6.066,-0.567 12.073,-2.309 7.272,-2.109 18.568,-6.597 31.082,-15.999 0.161,-0.126 18.339,-14.435 25.559,-37.719 C 141.354,178.775 103.853,127.604 67.819,81.584 35.499,40.308 7.873,8.853 0,0"
             style="fill:#8e8e8e;fill-opacity:1;fill-rule:nonzero;stroke:none"
             id="path152" /></g><g
           id="g154"
           transform="translate(492.6911,582.7862)"><path
             d="m 0,0 c 0,0 -44.061,-47.346 -83.663,-95.967 -34.22,-42.013 -70.309,-91.141 -70.309,-91.141 0,0 0.203,0.009 0.591,0.009 3.574,0 22.81,-0.756 43.36,-16.177 24.492,-18.379 32.346,-44.406 32.346,-44.406 0,0 31.52,34.861 70.153,84.2 39.043,49.862 79.274,105.039 79.274,105.039 -7.294,24.787 -26.561,39.694 -26.561,39.694 C 20.348,-0.084 0,0 0,0 m 1.639,-4.118 c 5.174,-0.515 21.754,-3.267 41.121,-17.807 0.631,-0.497 17.438,-13.916 24.576,-35.781 -6.943,-9.485 -43.164,-58.811 -78.008,-103.31 -29.838,-38.107 -55.671,-67.832 -65.615,-79.092 -3.991,9.214 -13.321,26.515 -31.333,40.032 -15.404,11.559 -30.209,15.268 -38.804,16.443 10.6,14.268 38.962,52.114 65.862,85.139 35.309,43.35 74.644,86.195 82.201,94.376"
             style="fill:#565656;fill-opacity:1;fill-rule:nonzero;stroke:none"
             id="path156" /></g><g
           id="g158"
           transform="translate(338.7189,395.6785)"><path
             d="m 0,0 c 0,0 -4.386,-12.859 29.602,-40.542 33.988,-27.684 46.695,-20.033 46.695,-20.033 0,0 3.388,16.93 -28.711,43.076 C 18.318,6.339 0,0 0,0"
             style="fill:#565656;fill-opacity:1;fill-rule:nonzero;stroke:none"
             id="path160" /></g><g
           id="g162"
           transform="translate(369.8588,357.0244)"><path
             d="M 0,0 C 21.714,-17.687 39.633,-23.644 40.052,-19.274 40.471,-14.904 31.78,2.383 14.314,16.609 -4.587,32.005 -20.627,36.562 -26.979,35.324 -31.647,34.414 -18.901,15.395 0,0"
             style="fill:#565656;fill-opacity:1;fill-rule:nonzero;stroke:none"
             id="path164" /></g><g
           id="g166"
           transform="translate(382.67,379.5104)"><path
             d="m 0,0 c -22.783,17.097 -43.951,16.168 -43.951,16.168 0,0 1.391,1.893 3.877,5.243 6.414,-0.52 20.743,-2.99 38.078,-14.23 22.168,-14.374 34.469,-35.509 37.981,-47.509 -2.358,-2.662 -3.639,-4.079 -3.639,-4.079 0,0 -7.853,26.028 -32.346,44.407"
             style="fill:#565656;fill-opacity:1;fill-rule:nonzero;stroke:none"
             id="path168" /></g><g
           id="g170"
           transform="translate(391.5441,377.8637)"><path
             d="M 0,0 2.494,3.062 C 2.596,3.187 2.577,3.371 2.452,3.473 L -0.386,5.785 C -0.518,5.893 -0.713,5.873 -0.821,5.74 L -3.304,2.691 C -3.311,2.683 -3.31,2.67 -3.301,2.663 l 3.272,-2.666 C -0.02,-0.01 -0.007,-0.009 0,0"
             style="fill:#565656;fill-opacity:1;fill-rule:nonzero;stroke:none"
             id="path172" /></g><g
           id="g174"
           transform="translate(372.1658,359.8568)"><path
             d="m 0,0 c 5.996,-4.884 12.665,-6.624 14.894,-3.887 2.23,2.738 -0.823,8.916 -6.82,13.8 C 2.078,14.797 -4.59,16.537 -6.82,13.8 -9.05,11.062 -5.996,4.884 0,0"
             style="fill:#706d61;fill-opacity:1;fill-rule:nonzero;stroke:none"
             id="path176" /></g><g
           id="g178"
           transform="translate(372.9348,360.8008)"><path
             d="M 0,0 C 5.996,-4.884 12.32,-7.047 14.125,-4.831 15.93,-2.615 12.533,3.141 6.536,8.025 0.54,12.909 -5.784,15.072 -7.589,12.856 -9.394,10.64 -5.996,4.884 0,0"
             style="fill:#b1b5bb;fill-opacity:1;fill-rule:nonzero;stroke:none"
             id="path180" /></g><g
           id="g182"
           transform="translate(375.0323,361.448)"><path
             d="M 0,0 C 2.346,-1.911 4.937,-2.615 5.786,-1.572 6.636,-0.529 5.422,1.865 3.076,3.776 0.73,5.688 -1.861,6.391 -2.71,5.349 -3.56,4.306 -2.346,1.911 0,0"
             style="fill:#706d61;fill-opacity:1;fill-rule:nonzero;stroke:none"
             id="path184" /></g><g
           id="g186"
           transform="translate(375.4168,361.9201)"><path
             d="M 0,0 C 2.346,-1.911 4.937,-2.615 5.786,-1.572 6.636,-0.529 5.422,1.865 3.076,3.776 0.73,5.688 -1.861,6.391 -2.711,5.349 -3.56,4.306 -2.346,1.911 0,0"
             style="fill:#d2d8dc;fill-opacity:1;fill-rule:nonzero;stroke:none"
             id="path188" /></g><g
           id="g190"
           transform="translate(308.0957,266.2354)"><path
             d="m 0,0 -21.525,15.929 -18.94,9.768 c 5.129,7.761 24.923,37.67 32.71,48.888 7.591,10.937 34.907,47.183 39.292,52.996 4.565,-0.059 24.011,-1.33 44.168,-17.748 C 95.784,93.479 103.077,74.091 104.588,69.49 100.104,64.478 76.447,38.052 55.224,14.585 32.495,-10.549 20.234,-22.797 19.442,-23.585 l -3.693,-3.254 z"
             style="fill:#8e8e8e;fill-opacity:1;fill-rule:nonzero;stroke:none"
             id="path192" /></g><g
           id="g194"
           transform="translate(339.2737,395.8189)"><path
             d="m 0,0 c -0.421,0 -0.643,-0.01 -0.643,-0.01 0,0 -31.595,-41.834 -39.934,-53.848 -9.052,-13.043 -33.963,-50.784 -33.963,-50.784 l 20.776,-10.716 21.068,-15.589 16.769,-28.579 5.558,4.896 c 0,0 12.182,12.064 35.899,38.29 23.716,26.225 50.125,55.755 50.125,55.755 0,0 -6.263,23.161 -29.865,42.386 C 24.494,-0.853 3.857,0 0,0 m 1.335,-4.03 c 5.778,-0.24 23.501,-2.261 41.929,-17.271 18.321,-14.923 25.782,-32.498 27.872,-38.335 -5.985,-6.687 -28.381,-31.694 -48.573,-54.021 -22.362,-24.728 -34.57,-36.958 -35.667,-38.051 l -1.828,-1.61 -14.314,24.395 -0.414,0.705 -0.657,0.486 -21.067,15.589 -0.259,0.192 -0.287,0.148 -16.816,8.673 c 6.512,9.845 24.205,36.545 31.455,46.991 7.273,10.478 32.749,44.314 38.626,52.109"
             style="fill:#565656;fill-opacity:1;fill-rule:nonzero;stroke:none"
             id="path196" /></g><g
           id="g198"
           transform="translate(258.0498,280.5845)"><path
             d="m 0,0 c 0,0 -5.804,-9.15 23.463,-32.989 10.514,-8.563 18.619,-12.086 24.406,-14.382 11.276,-4.473 14.178,-0.52 14.178,-0.52 0,0 4.978,16.326 -20.619,36.719 C 31.928,-3.604 12.88,7.041 0,0"
             style="fill:#767b84;fill-opacity:1;fill-rule:nonzero;stroke:none"
             id="path200" /></g><g
           id="g202"
           transform="translate(282.282,248.54)"><path
             d="M 0,0 C 15.382,-12.529 32.937,-17.405 34.859,-15.045 36.397,-13.156 30.168,3.696 14.786,16.225 -0.596,28.754 -20.249,32.983 -22.556,30.15 -25.247,26.846 -15.382,12.529 0,0"
             style="fill:#484c50;fill-opacity:1;fill-rule:nonzero;stroke:none"
             id="path204" /></g><g
           id="g206"
           transform="translate(328.3228,350.8242)"><path
             d="m 0,0 c -2.827,0 -5.306,0.802 -7.168,2.319 -2.273,1.851 -3.349,4.658 -3.028,7.904 0.313,3.165 1.925,6.614 4.662,9.974 4.288,5.265 11.108,8.942 16.583,8.942 2.804,0 5.251,-0.944 7.077,-2.73 C 23.11,21.535 21.638,13.587 14.377,6.16 10.774,2.476 4.996,0 0,0 0,0 0,0 0,0"
             style="fill:#706d61;fill-opacity:1;fill-rule:nonzero;stroke:none"
             id="path208" /></g><g
           id="g210"
           transform="translate(339.3722,381.463)"><path
             d="m 0,0 c -5.896,0 -13.193,-3.904 -17.746,-9.494 -2.924,-3.59 -4.65,-7.315 -4.992,-10.774 -0.372,-3.763 0.897,-7.035 3.573,-9.215 2.133,-1.738 4.94,-2.656 8.115,-2.656 5.374,0 11.583,2.657 15.45,6.612 7.899,8.078 9.361,16.859 3.725,22.37 C 6.013,-1.092 3.203,0 0,0 m 0,-3 c 2.277,0 4.378,-0.689 6.027,-2.302 4.809,-4.701 2.105,-12.117 -3.772,-18.128 -3.158,-3.229 -8.538,-5.709 -13.305,-5.709 -2.331,0 -4.515,0.593 -6.221,1.982 -3.776,3.076 -3.458,9.251 1.851,15.768 C -11.695,-6.815 -5.359,-3 0,-3"
             style="fill:#565656;fill-opacity:1;fill-rule:nonzero;stroke:none"
             id="path212" /></g><g
           id="g214"
           transform="translate(339.5876,373.8631)"><path
             d="M 0,0 C 0.472,-0.391 1.166,-0.319 1.55,0.161 1.934,0.641 1.863,1.348 1.391,1.739 0.92,2.13 0.226,2.058 -0.158,1.578 -0.543,1.097 -0.472,0.391 0,0"
             style="fill:#cccccc;fill-opacity:1;fill-rule:nonzero;stroke:none"
             id="path216" /></g><g
           id="g218"
           transform="translate(326.6045,368.0023)"><path
             d="M 0,0 C 0.327,-0.324 0.936,-0.226 1.36,0.218 1.784,0.662 1.863,1.284 1.536,1.608 1.209,1.932 0.6,1.834 0.175,1.39 -0.249,0.946 -0.327,0.324 0,0"
             style="fill:#cccccc;fill-opacity:1;fill-rule:nonzero;stroke:none"
             id="path220" /></g><g
           id="g222"
           transform="translate(341.2028,361.6777)"><path
             d="M 0,0 C 0.472,-0.391 1.166,-0.319 1.55,0.161 1.934,0.641 1.863,1.348 1.391,1.739 0.92,2.13 0.226,2.058 -0.158,1.578 -0.543,1.097 -0.472,0.391 0,0"
             style="fill:#cccccc;fill-opacity:1;fill-rule:nonzero;stroke:none"
             id="path224" /></g><g
           id="g226"
           transform="translate(325.4059,355.2519)"><path
             d="M 0,0 C 0.472,-0.391 1.166,-0.319 1.55,0.161 1.934,0.641 1.863,1.348 1.391,1.739 0.92,2.13 0.226,2.058 -0.158,1.578 -0.543,1.097 -0.472,0.391 0,0"
             style="fill:#cccccc;fill-opacity:1;fill-rule:nonzero;stroke:none"
             id="path228" /></g><g
           id="g230"
           transform="translate(382.021,315.1045)"><path
             d="m 0,0 c -3.924,0 -7.56,1.908 -9.727,5.104 -4.641,6.845 -4.077,15.966 1.404,22.696 2.757,3.385 6.603,5.326 10.554,5.326 5.045,0 9.264,-3.019 11.284,-8.073 C 16.029,18.76 14.61,10.715 9.984,5.036 7.339,1.789 3.794,0 0.001,0 Z"
             style="fill:#706d61;fill-opacity:1;fill-rule:nonzero;stroke:none"
             id="path232" /></g><g
           id="g234"
           transform="translate(384.2519,349.73)"><path
             d="m 0,0 c -4.403,0 -8.674,-2.143 -11.717,-5.879 -5.903,-7.246 -6.498,-17.086 -1.482,-24.485 2.446,-3.608 6.546,-5.761 10.968,-5.761 4.253,0 8.212,1.984 11.147,5.588 4.96,6.089 6.471,14.738 3.761,21.521 C 10.454,-3.455 5.597,0 0,0 m 0,-3 c 4.091,0 7.995,-2.386 9.891,-7.13 2.326,-5.82 0.929,-13.32 -3.301,-18.512 -2.548,-3.13 -5.763,-4.483 -8.821,-4.483 -3.4,0 -6.607,1.675 -8.485,4.445 -4.647,6.854 -3.289,15.242 1.325,20.907 C -6.795,-4.586 -3.336,-3 0,-3"
             style="fill:#565656;fill-opacity:1;fill-rule:nonzero;stroke:none"
             id="path236" /></g><g
           id="g238"
           transform="translate(388.4937,339.2024)"><path
             d="M 0,0 C 0.434,-0.353 1.071,-0.288 1.425,0.146 1.778,0.579 1.712,1.217 1.279,1.57 0.845,1.923 0.208,1.858 -0.146,1.425 -0.499,0.991 -0.434,0.353 0,0"
             style="fill:#cccccc;fill-opacity:1;fill-rule:nonzero;stroke:none"
             id="path240" /></g><g
           id="g242"
           transform="translate(379.4844,321.7282)"><path
             d="M 0,0 C 0.434,-0.353 1.071,-0.288 1.424,0.146 1.778,0.579 1.712,1.217 1.279,1.57 0.845,1.923 0.208,1.858 -0.146,1.425 -0.499,0.991 -0.434,0.353 0,0"
             style="fill:#cccccc;fill-opacity:1;fill-rule:nonzero;stroke:none"
             id="path244" /></g><g
           id="g246"
           transform="translate(376.2111,336.1475)"><path
             d="M 0,0 C 0.434,-0.353 1.071,-0.288 1.425,0.146 1.778,0.579 1.712,1.217 1.279,1.57 0.845,1.923 0.208,1.858 -0.146,1.425 -0.499,0.991 -0.434,0.353 0,0"
             style="fill:#cccccc;fill-opacity:1;fill-rule:nonzero;stroke:none"
             id="path248" /></g><g
           id="g250"
           transform="translate(390.5003,326.4971)"><path
             d="M 0,0 C 0.374,-0.19 0.882,0.059 1.136,0.558 1.39,1.056 1.293,1.614 0.919,1.805 0.545,1.995 0.036,1.745 -0.217,1.247 -0.471,0.749 -0.374,0.19 0,0"
             style="fill:#cccccc;fill-opacity:1;fill-rule:nonzero;stroke:none"
             id="path252" /></g><g
           id="g254"
           transform="translate(286.5114,253.7326)"><path
             d="M 0,0 C 2.868,-2.336 6.053,-3.173 7.115,-1.869 8.177,-0.566 6.713,2.385 3.845,4.721 0.977,7.056 -2.208,7.893 -3.27,6.59 -4.332,5.286 -2.868,2.336 0,0"
             style="fill:#c3c9d5;fill-opacity:1;fill-rule:nonzero;stroke:none"
             id="path256" /></g><g
           id="g258"
           transform="translate(320.7407,235.4023)"><path
             d="m 0,0 c -5.083,13.887 -14.004,25.702 -25.896,34.266 -2.3,1.656 -4.683,3.213 -7.084,4.625 -11.583,6.813 -22.346,7.793 -26.947,7.861 l 4.802,7.609 c 0.632,0.057 1.691,0.125 3.09,0.125 7.041,0 20.882,-1.653 34.476,-12.725 C -7.083,33.228 -1.102,23.79 2.071,17.375 4.731,11.995 5.918,7.78 6.325,6.117 Z"
             style="fill:#8e8e8e;fill-opacity:1;fill-rule:nonzero;stroke:none"
             id="path260" /></g><g
           id="g262"
           transform="translate(268.7064,291.389)"><path
             d="m 0,0 c -2.512,0 -3.973,-0.212 -3.973,-0.212 l -6.684,-10.593 c 0.673,0.047 1.415,0.074 2.221,0.074 6.316,0 16.471,-1.624 26.73,-7.658 2.496,-1.469 4.82,-3.002 6.968,-4.549 12.186,-8.777 21.257,-21.242 26.036,-35.479 0.031,-0.092 0.062,-0.185 0.093,-0.278 l 8.616,8.333 c 0,0 -3.814,20.382 -24.585,37.3 C 21.292,-1.553 6.796,0 0,0 m 0.001,-3 v 0 c 6.841,0 20.294,-1.61 33.527,-12.388 10.225,-8.329 16.074,-17.53 19.179,-23.781 2.268,-4.565 3.448,-8.271 3.981,-10.23 l -4.065,-3.931 c -5.299,13.243 -14.087,24.529 -25.607,32.826 -2.336,1.683 -4.759,3.264 -7.201,4.701 -10.05,5.911 -19.516,7.544 -25.062,7.95 l 3.021,4.788 C -1.65,-3.03 -0.899,-3 0.001,-3"
             style="fill:#565656;fill-opacity:1;fill-rule:nonzero;stroke:none"
             id="path264" /></g><g
           id="g266"
           transform="translate(306.0459,278.2324)"><path
             d="M 0,0 0.797,0.979 1.775,0.182 0.978,-0.797 Z"
             style="fill:#8e8e8e;fill-opacity:1;fill-rule:nonzero;stroke:none"
             id="path268" /></g><g
           id="g270"
           transform="translate(306.6715,281.1951)"><path
             d="M 0,0 C -0.09,0 -0.179,-0.039 -0.24,-0.114 L -2.723,-3.163 C -2.73,-3.171 -2.729,-3.184 -2.72,-3.191 l 3.273,-2.666 c 0.003,-0.003 0.008,-0.005 0.012,-0.005 0.006,0 0.012,0.003 0.016,0.008 l 2.494,3.062 c 0.102,0.125 0.083,0.309 -0.042,0.411 L 0.195,-0.07 C 0.138,-0.023 0.069,0 0,0"
             style="fill:#565656;fill-opacity:1;fill-rule:nonzero;stroke:none"
             id="path272" /></g><g
           id="g274"
           transform="translate(205.3794,147.5303)"><path
             d="M 0,0 C -1.836,0 -3.55,0.217 -5.107,0.645 -6.125,3.314 -9.066,13.533 -2.8,30.529 4.838,51.246 28.621,91.033 28.861,91.433 l 25.177,39.9 c 1.084,0.128 2.211,0.192 3.361,0.192 7.265,0 15.791,-2.563 24.658,-7.412 4.438,-2.426 8.867,-5.691 13.164,-9.705 7.911,-7.389 13.698,-16.453 16.737,-26.212 0.24,-0.77 0.459,-1.532 0.654,-2.275 L 72.403,48.492 C 72.007,48.122 32.929,11.696 14.412,3.492 14.259,3.419 7.315,0 0,0"
             style="fill:#8e8e8e;fill-opacity:1;fill-rule:nonzero;stroke:none"
             id="path276" /></g><g
           id="g278"
           transform="translate(262.7781,281.0552)"><path
             d="m 0,0 c -1.587,0 -3.107,-0.114 -4.554,-0.335 l -25.7,-40.729 c 0,0 -24.029,-40.105 -31.821,-61.241 -7.793,-21.135 -1.9,-32.217 -1.9,-32.217 2.143,-0.721 4.382,-1.004 6.577,-1.004 7.906,0 15.221,3.665 15.221,3.665 19.044,8.438 58.544,45.364 58.544,45.364 l 41.155,38.309 -0.092,-0.037 c -0.279,1.176 -0.604,2.345 -0.961,3.491 -3.237,10.394 -9.326,19.648 -17.281,27.079 -3.747,3.5 -8.341,7.139 -13.57,9.999 C 15.989,-2.391 7.286,0 0,0 m 0.001,-4 v 0 c 6.93,0 15.125,-2.478 23.697,-7.166 4.293,-2.347 8.586,-5.514 12.759,-9.412 7.658,-7.153 13.257,-15.917 16.193,-25.346 0.109,-0.35 0.213,-0.698 0.313,-1.043 L 13.636,-83.574 c -0.391,-0.365 -39.225,-36.562 -57.433,-44.63 l -0.087,-0.039 -0.077,-0.038 c -0.066,-0.033 -6.621,-3.245 -13.437,-3.245 -1.269,0 -2.467,0.113 -3.58,0.337 -0.374,1.21 -0.834,3.142 -1.032,5.765 -0.336,4.443 0.032,11.82 3.688,21.736 7.47,20.26 30.619,59.095 31.477,60.531 L -2.191,-4.086 C -1.476,-4.029 -0.744,-4 0.001,-4"
             style="fill:#565656;fill-opacity:1;fill-rule:nonzero;stroke:none"
             id="path280" /></g><g
           id="g282"
           transform="translate(211.0449,180.5)"><path
             d="m 0,0 c -0.459,1.112 -0.568,2.849 1.148,5.118 4.023,5.319 24.778,45.383 25.66,47.086 l 0.409,0.791 -0.498,0.738 c -0.344,0.515 -8.339,12.807 3.701,24.246 3.611,3.43 7.759,5.169 12.329,5.169 5.636,0 10.546,-2.649 12.711,-4.022 z"
             style="fill:#706d61;fill-opacity:1;fill-rule:nonzero;stroke:none"
             id="path284" /></g><g
           id="g286"
           transform="translate(253.7941,265.1487)"><path
             d="m 0,0 c -4.255,0 -8.943,-1.383 -13.362,-5.582 -13.151,-12.495 -3.911,-26.173 -3.911,-26.173 0,0 -21.532,-41.593 -25.524,-46.871 -3.992,-5.277 0.083,-8.586 0.083,-8.586 L 14.81,-5.142 C 14.81,-5.142 8.207,0.001 0,0 m 0.002,0 v -3 0 c 4.305,0 8.183,-1.678 10.552,-2.987 l -44.352,-63.278 c 7.291,13.183 17.614,33.089 19.189,36.13 l 0.802,1.578 -0.973,1.469 c -0.315,0.477 -7.6,11.799 3.484,22.331 C -7.974,-4.601 -4.173,-3 0,-3 Z"
             style="fill:#565656;fill-opacity:1;fill-rule:nonzero;stroke:none"
             id="path288" /></g></g></g><path
       style="fill:#ffcc00;fill-opacity:0.162228;stroke-width:12.0583"
       d="m 749.38128,716.66726 c -2.74971,-5.42629 -9.13866,-14.46975 -14.19767,-20.09658 -5.50223,-6.11981 -8.74496,-11.41171 -8.07024,-13.17002 0.66011,-1.72021 -0.35767,-3.5095 -2.4538,-4.31386 -1.96997,-0.75595 -3.87729,-0.48789 -4.23848,0.59568 -0.36119,1.08357 -4.79625,-0.82361 -9.85569,-4.23819 -10.08565,-6.80672 -29.59709,-15.4052 -35.12729,-15.4802 -1.92768,-0.0262 -3.50487,-1.08064 -3.50487,-2.34332 0,-2.5182 0.64073,-3.23772 53.9222,-60.55403 l 36.89856,-39.69277 8.16403,1.26301 c 12.02772,1.86075 27.85682,10.21283 37.95387,20.02603 9.3871,9.12323 21.23063,27.84086 21.2623,33.60314 0.0249,4.54307 -63.31827,101.11011 -73.13928,111.50116 -2.18932,2.31639 -3.4267,1.16248 -7.61364,-7.10005 z"
       id="path1179"
       transform="matrix(0.75000002,0,0,-0.75000002,0,1080)" /><path
       style="fill:#ffcc00;fill-opacity:0.162228;stroke-width:12.0583"
       d="m 830.95786,595.37325 c -7.90009,-17.55758 -33.75202,-38.49004 -52.56011,-42.55821 l -6.69265,-1.44762 5.42051,-5.65779 c 2.98128,-3.11178 6.47808,-5.25196 7.77066,-4.75595 2.73189,1.04832 14.15344,-10.21027 14.18932,-13.98688 0.0238,-2.51042 23.90876,-24.57348 36.44315,-33.66339 3.50743,-2.54358 12.42904,-9.35626 19.8258,-15.13929 7.39676,-5.78304 15.49228,-10.51461 17.99003,-10.51461 2.49776,0 4.92164,-1.12656 5.38641,-2.50347 1.21908,-3.61168 14.4146,2.97384 18.52327,9.24445 4.18821,6.39202 3.55625,7.80413 -25.6648,57.34804 -12.66882,21.47983 -22.674,39.42423 -22.23372,39.87645 0.44029,0.45222 2.60855,-0.81403 4.81836,-2.81388 2.20981,-1.99986 4.01784,-2.97956 4.01784,-2.17713 0,2.36328 -20.73429,37.21469 -22.14029,37.21469 -0.70661,0 -2.99881,-3.80943 -5.09378,-8.46541 z m 3.86876,-28.43962 c 1.30841,-3.40967 -3.61338,-8.04783 -6.58868,-6.20899 -1.14978,0.7106 -2.09051,3.04132 -2.09051,5.17937 0,4.58979 6.99461,5.41957 8.67919,1.02962 z m 61.06432,-87.93409 c 0.43662,-2.25129 -0.70505,-3.3389 -3.50487,-3.3389 -2.28382,0 -4.15241,1.20167 -4.15241,2.67038 0,6.134 6.48746,6.7004 7.65728,0.66852 z"
       id="path1218"
       transform="matrix(0.75000002,0,0,-0.75000002,0,1080)" /><path
       style="fill:#ffcc00;fill-opacity:0.162228;stroke-width:12.0583"
       d="m 551.02306,969.32504 c -2.99233,-5.71525 -10.11791,-15.63922 -15.83462,-22.05322 -5.71671,-6.41401 -10.40879,-13.08368 -10.42683,-14.82149 -0.0196,-1.89776 -1.58153,-3.02374 -3.91063,-2.81934 -2.13279,0.18726 -7.79124,-2.35218 -12.57433,-5.64303 -10.0328,-6.90275 -26.69508,-14.57328 -36.12088,-16.62838 -3.57997,-0.78052 -6.50904,-1.84166 -6.50904,-2.35805 0,-1.23878 25.41934,-34.87286 52.78359,-69.84159 30.85761,-39.43291 53.0577,-66.02596 93.41947,-111.90537 19.27677,-21.912 37.79017,-42.98483 41.14088,-46.82852 5.7383,-6.58254 6.59231,-6.90403 14.70102,-5.53407 11.31313,1.91134 37.06814,14.91327 47.87694,24.16977 9.25629,7.92697 22.27864,25.85646 27.01774,37.19871 3.45151,8.26065 7.49725,1.53034 -35.36912,58.83829 -56.91904,76.09487 -108.61764,141.19356 -141.69807,178.42567 l -9.05553,10.19204 z"
       id="path1257"
       transform="matrix(0.75000002,0,0,-0.75000002,0,1080)" /><path
       style="fill:#ffcc00;fill-opacity:0.162228;stroke-width:12.0583"
       d="m 433.0774,1101.8923 c -1.92593,-4.6564 -7.47968,-13.0137 -12.34167,-18.5717 -4.86199,-5.558 -8.68759,-11.8459 -8.50134,-13.9731 0.23037,-2.6312 -0.83516,-3.7699 -3.33305,-3.5617 -2.01943,0.1683 -8.49893,-2.2333 -14.3989,-5.3369 -5.89998,-3.1035 -15.6706,-6.7491 -21.7125,-8.1012 l -10.98528,-2.4584 16.15914,-24.2492 c 8.88753,-13.3371 22.0201,-32.57449 29.18349,-42.74975 l 13.02435,-18.50047 4.61688,4.98169 c 6.17634,6.66438 19.39427,6.87338 29.04604,0.45928 7.93003,-5.26993 16.35621,-20.47519 14.65466,-26.44471 -1.71242,-6.00762 -10.35653,-13.09407 -15.97225,-13.09407 -5.86824,0 -6.02937,-1.48305 -0.83807,-7.71379 3.75002,-4.50087 4.39062,-4.60171 14.45353,-2.27505 28.19928,6.51999 59.50827,31.11949 73.36947,57.64646 l 6.58858,12.60893 -7.31006,8.92097 c -4.02054,4.90651 -7.54919,8.92101 -7.84145,8.92101 -0.29226,0 -0.12197,-4.9371 0.37844,-10.97127 0.86782,-10.46477 0.57249,-11.30855 -6.39742,-18.27846 -6.45048,-6.45049 -8.15198,-7.17015 -14.51222,-6.13802 -17.50073,2.83998 -26.536,24.8356 -16.77673,40.84165 4.37749,7.1794 11.01159,9.6787 20.60048,7.7609 l 6.37901,-1.2758 -7.07791,7.5493 c -3.89284,4.1521 -20.22394,21.9692 -36.2913,39.5937 -16.06737,17.6245 -31.78939,34.4816 -34.93782,37.4603 l -5.72441,5.4157 z"
       id="path1296"
       transform="matrix(0.75000002,0,0,-0.75000002,0,1080)" /><path
       style="fill:#ffcc00;fill-opacity:0.162228;stroke-width:12.0583"
       d="m 269.37413,1227.9351 c 0,-5.9319 1.48543,-15.3846 3.30096,-21.0061 2.93016,-9.0727 3.58992,-9.8297 5.87351,-6.739 1.6967,2.2963 3.22532,2.7999 4.4898,1.479 1.75898,-1.8375 71.81612,-101.2537 75.12663,-106.6102 1.62235,-2.625 -4.61185,-6.5985 -13.17425,-8.3968 l -5.49601,-1.1544 3.96449,-6.509 c 3.37677,-5.5441 5.11655,-6.509 11.73596,-6.509 19.03437,0 51.35532,24.1898 60.77568,45.4861 l 4.17539,9.4392 -15.80333,14.6745 c -80.15163,74.4267 -109.39311,96.631 -127.256,96.631 h -7.71283 z"
       id="path1335"
       transform="matrix(0.75000002,0,0,-0.75000002,0,1080)" /><path
       style="fill:#ffd42a;fill-opacity:0.162228;stroke-width:9.04373"
       d="m 202.57713,160.34338 c 1.18765,11.59207 4.43452,22.03335 6.04255,19.43145 0.60426,-0.9777 1.69507,-1.77765 2.42403,-1.77765 1.20355,0 19.1942,24.7521 47.8694,65.86027 11.63555,16.68045 11.92576,18.5934 3.11438,20.5287 -6.17112,1.3554 -6.67225,3.12233 -2.16416,7.63043 3.34435,3.34432 4.73352,3.76837 9.46891,2.89057 13.47256,-2.49742 33.86243,-18.37087 41.40936,-32.23702 l 4.17235,-7.66598 -11.00357,-10.25032 C 246.79411,171.54733 223.8906,154.0712 207.9322,151.5194 l -6.36336,-1.01752 z"
       id="path1411" /><path
       style="fill:#ffd42a;fill-opacity:0.162228;stroke-width:9.04373"
       d="m 324.60817,254.2001 c -1.47329,3.1134 -5.25341,9.0405 -8.40028,13.1712 -3.14687,4.13078 -5.9593,8.74283 -6.24985,10.24913 -0.32936,1.70745 -3.35616,3.78052 -8.0387,5.50567 -4.13074,1.5219 -11.22809,4.1541 -15.77191,5.84933 -4.5438,1.69522 -9.44437,3.10432 -10.89012,3.13125 -1.44576,0.027 -2.62865,0.45525 -2.62865,0.9516 0,0.966 32.56901,49.1638 38.70874,57.28381 l 3.67648,4.86226 3.79438,-2.98466 c 5.27962,-4.15294 15.0251,-3.95416 21.54479,0.43945 5.35933,3.61165 11.81979,13.46791 11.86147,18.09616 0.0335,3.71752 -8.01229,11.52563 -11.87644,11.52563 -3.64343,0 -4.1126,3.31438 -0.85221,6.02027 3.51076,2.91368 13.38261,0.87632 26.02213,-5.37048 13.78665,-6.81373 32.02684,-24.19963 38.91678,-37.09408 l 4.62503,-8.65568 -5.12295,-6.13177 -5.12295,-6.13181 v 8.10897 c 0,7.20057 -0.55487,8.64673 -4.95329,12.90985 -6.73044,6.52339 -12.79587,6.47074 -20.04656,-0.17403 -4.52024,-4.14249 -5.5499,-6.23729 -6.1535,-12.51899 -0.49882,-5.1914 0.0266,-8.9972 1.68477,-12.20383 2.99766,-5.79682 4.62101,-6.82462 12.34394,-7.81545 l 6.1577,-0.78997 -29.14333,-31.5438 c -16.02883,-17.34915 -29.6526,-31.72545 -30.27505,-31.94738 -0.62245,-0.22192 -2.33714,2.14388 -3.81042,5.25735 z"
       id="path1450" /><path
       style="fill:#ffd42a;fill-opacity:0.162228;stroke-width:9.04373"
       d="m 414.54187,351.81635 c -1.63363,3.07202 -6.24082,9.66243 -10.2382,14.64534 -3.99739,4.98292 -8.23937,10.91868 -9.42662,13.19059 -1.18725,2.2719 -3.16161,4.13073 -4.38746,4.13073 -1.22586,0 -7.79891,2.98579 -14.60677,6.63511 -6.80787,3.6493 -15.25068,7.47396 -18.76181,8.49923 -3.51113,1.02527 -6.38387,2.37422 -6.38387,2.99766 0,1.37217 35.15475,47.47296 55.10838,72.26731 15.61806,19.40699 40.77292,48.86591 69.02771,80.83853 21.99701,24.89143 22.01235,24.89645 43.50278,14.23103 11.2119,-5.56433 15.88994,-8.94964 22.82373,-16.51666 11.66139,-12.72634 17.73081,-23.82292 15.59463,-28.5113 -2.42109,-5.31372 -61.7865,-83.91301 -89.55634,-118.57184 -20.22589,-25.24341 -48.71817,-59.42122 -49.53641,-59.42122 -0.10423,0 -1.52612,2.51347 -3.15975,5.58549 z"
       id="path1567" /><path
       style="fill:#ffd42a;fill-opacity:0.162228;stroke-width:9.04373"
       d="m 562.06067,543.41224 c -2.09655,3.57748 -6.53452,9.79925 -9.86215,13.82614 -3.32763,4.0269 -6.2507,8.724 -6.49572,10.438 -0.30364,2.12414 -1.64113,3.19025 -4.2007,3.3484 -2.06537,0.12761 -9.69731,3.33832 -16.95987,7.13491 -7.26257,3.79659 -14.48902,6.90288 -16.05878,6.90288 -1.56977,0 -3.2249,0.59993 -3.67806,1.33317 -0.45317,0.73324 14.4084,17.80069 33.02572,37.92768 33.37545,36.08183 33.92674,36.58779 39.35148,36.11493 14.12208,-1.231 32.83176,-15.45505 41.42395,-31.49262 l 4.25327,-7.93882 -7.15572,-11.5883 c -11.42973,-18.50986 -45.28688,-68.73916 -47.66297,-70.71114 -1.78466,-1.48115 -2.84335,-0.64828 -5.98045,4.70477 z"
       id="path1606" /><path
       style="fill:#ffd42a;fill-opacity:0.162228;stroke-width:9.04373"
       d="m 623.99272,633.429 c -3.35177,8.0919 -19.4233,23.16035 -30.0782,28.20093 -5.28162,2.49861 -10.47167,4.54347 -11.53341,4.54412 -3.32754,0.002 0.83985,5.86707 4.89135,6.88393 1.99389,0.50043 8.56478,6.38403 14.60199,13.07464 10.91196,12.09297 35.44944,32.66495 47.12988,39.51322 9.86182,5.78201 14.32067,6.05957 20.03956,1.24745 4.06314,-3.41892 4.76833,-4.88376 4.05884,-8.43121 -0.47228,-2.36136 -8.73878,-17.96465 -18.37002,-34.67398 -9.63123,-16.70933 -17.84075,-30.95997 -18.24336,-31.66809 -0.40262,-0.70812 0.8081,-0.79867 2.69048,-0.20123 l 3.42251,1.08627 -3.46236,-5.80713 c -8.54454,-14.33102 -11.33168,-18.56965 -12.21225,-18.57216 -0.51938,-10e-4 -1.84014,2.15999 -2.93501,4.80324 z m 2.46634,20.87368 c 1.32424,2.14267 -3.05958,6.52649 -5.20224,5.20225 -2.86257,-1.76916 -1.92117,-6.84848 1.26929,-6.84848 1.60354,0 3.37336,0.74081 3.93295,1.64623 z m 45.45916,66.44766 c 0.32747,1.68846 -0.52878,2.50417 -2.62865,2.50417 -1.71286,0 -3.11431,-0.90125 -3.11431,-2.00278 0,-4.6005 4.8656,-5.0253 5.74296,-0.50139 z"
       id="path1645" /><path
       style="fill:#ffcc00;fill-opacity:0.162228;stroke-width:6.38363"
       d="m 831.29735,595.4375 c -2.0283,-4.02766 -6.13779,-10.26695 -9.1322,-13.86511 -10.66613,-12.81665 -30.17425,-25.89121 -43.13562,-28.90997 -3.06151,-0.71304 -5.56639,-1.59988 -5.56639,-1.97075 0,-1.61899 9.70541,-9.42651 11.71794,-9.42651 2.64285,0 15.04265,-11.45447 14.08217,-13.00857 -1.21036,-1.9584 23.30649,-24.44795 43.13915,-39.57197 20.73583,-15.81275 28.00944,-20.57773 31.41134,-20.57773 1.14938,0 3.01594,-0.7005 4.1479,-1.55667 3.06428,-2.31771 5.88045,-1.96258 11.20271,1.4127 5.95628,3.77736 9.41029,8.06672 9.4092,11.68481 -10e-4,4.15471 -4.36903,12.614 -22.78204,44.12306 -19.83283,33.93872 -27.60883,48.24205 -26.22679,48.24205 0.55648,0 2.2249,-0.95424 3.7076,-2.12053 1.4827,-1.16629 3.02152,-2.12053 3.41961,-2.12053 0.39809,0 -1.3055,3.69767 -3.78575,8.21705 -6.80328,12.39654 -15.92129,26.77169 -16.98102,26.77169 -0.517,0 -2.59952,-3.29536 -4.62781,-7.32302 z m 1.98404,-26.18876 c 1.98141,-0.76034 2.24802,-5.78327 0.40479,-7.62649 -2.27592,-2.27592 -6.11227,-1.50837 -7.23619,1.44776 -1.89117,4.97415 1.64226,8.16999 6.8314,6.17873 z m 62.67585,-89.58454 c 0.93458,-2.94458 -0.66791,-4.38096 -4.41048,-3.95328 -3.608,0.41231 -4.64953,3.89318 -1.96742,6.57529 2.09206,2.09205 5.30033,0.7731 6.3779,-2.62201 z"
       id="path2009"
       transform="matrix(0.75000002,0,0,-0.75000002,0,1080)" /><path
       style="fill:#ffcc00;fill-opacity:0.162228;stroke-width:6.38363"
       d="m 749.97629,716.9622 c -4.27865,-7.35606 -6.8361,-10.96926 -17.29694,-24.4374 -2.64418,-3.40432 -4.80759,-7.30647 -4.80759,-8.67145 0,-3.75836 -2.85583,-6.0539 -6.5281,-5.24733 -2.50905,0.55108 -5.09469,-0.4703 -13.85027,-5.47117 -10.88458,-6.21687 -26.38258,-13.06943 -29.63242,-13.1022 -2.91878,-0.0294 -5.12298,-1.21467 -5.12298,-2.75471 0,-2.05958 7.44446,-10.43539 50.81125,-57.16808 25.96982,-27.98546 39.16273,-41.45428 40.81828,-41.67193 7.60991,-1.00049 25.25132,6.05077 37.23173,14.88149 9.74405,7.1823 20.94498,21.40036 26.38768,33.49554 2.03482,4.52193 2.03414,4.5484 -0.23394,9.21679 -7.77266,15.99848 -68.07339,106.45814 -72.02695,108.05067 -0.77328,0.31148 -3.11077,-2.58315 -5.74975,-7.12022 z"
       id="path2048"
       transform="matrix(0.75000002,0,0,-0.75000002,0,1080)" /><path
       style="fill:#ffcc00;fill-opacity:0.162228;stroke-width:6.38363"
       d="m 554.12473,974.19664 c -3.38796,-6.97914 -10.66125,-17.67142 -17.98648,-26.44142 -8.09656,-9.69346 -11.03215,-13.98185 -10.33898,-15.10343 0.93943,-1.52002 -2.87431,-4.16685 -5.9726,-4.14513 -1.65426,0.0115 -7.53114,-2.72674 -13.78344,-6.4224 -12.81854,-7.57687 -19.98879,-10.86006 -30.65574,-14.03696 -4.2959,-1.27943 -8.15082,-2.62828 -8.56649,-2.99743 -1.28741,-1.14333 49.33653,-67.22746 83.33967,-108.79103 22.02291,-26.9196 90.91993,-106.59315 103.91056,-120.16374 l 5.41345,-5.65515 5.79231,0.6547 c 13.26375,1.4992 39.50902,15.02229 52.06678,26.82784 11.60499,10.90985 26.46559,33.25913 26.41182,39.72147 -0.0307,3.68018 -3.66089,8.89469 -38.37292,55.11894 -53.68911,71.49505 -96.05752,125.16897 -129.06351,163.50259 -8.49151,9.86215 -16.40041,19.08197 -17.57534,20.48848 l -2.13624,2.55731 z"
       id="path2087"
       transform="matrix(0.75000002,0,0,-0.75000002,0,1080)" /><path
       style="fill:#ffcc00;fill-opacity:0.162228;stroke-width:6.38363"
       d="m 433.87668,1102.9329 c -1.58815,-3.6405 -6.94115,-12.0281 -11.89555,-18.6391 -4.96986,-6.6316 -9.008,-13.0719 -9.008,-14.3666 0,-3.0337 -1.90797,-4.8912 -5.02398,-4.8912 -1.36364,0 -7.11293,-2.1097 -12.77619,-4.6881 -11.39258,-5.1868 -20.74455,-8.435 -27.64005,-9.6 -3.15186,-0.5325 -4.37234,-1.1987 -3.99541,-2.181 1.09004,-2.8406 53.26245,-79.69248 56.37116,-83.03679 0.18972,-0.2041 2.01518,1.29914 4.05658,3.34054 2.0414,2.04139 5.48171,4.29581 7.64513,5.0098 5.07334,1.67435 13.82675,0.76295 19.25128,-2.00443 9.2761,-4.73232 19.37108,-20.52688 17.88113,-27.97671 -1.33616,-6.68079 -8.24851,-12.46215 -16.82344,-14.07081 -3.82094,-0.71682 -3.86796,-0.78485 -2.44483,-3.53689 2.24891,-4.34889 5.59957,-6.84343 9.05996,-6.74505 6.01414,0.171 19.54366,4.59585 29.02446,9.49249 23.29501,12.0314 42.69624,31.41793 54.0788,54.03783 l 3.84115,7.6333 -6.61299,7.9873 -6.61298,7.98732 -0.53013,-10.32143 c -0.59488,-11.58196 -1.88498,-14.32488 -9.61834,-20.44981 -3.37855,-2.67586 -5.22938,-3.36821 -8.81184,-3.2963 -8.76904,0.17601 -15.63492,4.57164 -20.17753,12.9179 -5.59055,10.27169 -4.71908,22.55814 2.171,30.60764 4.44034,5.1875 9.39701,6.9618 16.96426,6.0724 3.12896,-0.3677 5.68901,-0.4137 5.68901,-0.1022 0,0.7302 -70.35988,76.9985 -76.51508,82.9404 l -4.66003,4.4985 z"
       id="path2126"
       transform="matrix(0.75000002,0,0,-0.75000002,0,1080)" /><path
       style="fill:#ffcc00;fill-opacity:0.162228;stroke-width:6.38363"
       d="m 270.1337,1226.5855 c 0.53769,-9.8791 3.3718,-23.2797 5.7612,-27.2407 0.29028,-0.4812 1.63492,0.1651 2.9881,1.4364 1.35317,1.2712 2.98229,1.9887 3.62026,1.5945 1.16133,-0.7178 23.44388,-31.8587 51.99372,-72.6636 8.36415,-11.9545 17.27644,-24.6836 19.80509,-28.287 2.52865,-3.6034 4.59755,-7.03 4.59755,-7.6147 0,-1.894 -5.99817,-5.3991 -11.76482,-6.8749 -3.09347,-0.7916 -5.78648,-1.9253 -5.98446,-2.5192 -0.67736,-2.0321 6.54348,-10.1989 9.7973,-11.0808 7.08087,-1.9191 21.41658,2.9888 34.31522,11.7481 14.17792,9.6281 26.87307,24.1645 31.88233,36.5065 l 2.31527,5.7045 -6.68953,6.3493 c -11.01153,10.4516 -35.4476,32.8096 -51.78949,47.3853 -32.09414,28.6255 -52.83046,44.7401 -66.60121,51.7571 -7.6198,3.8827 -9.97307,4.5688 -16.86456,4.9168 l -8.00908,0.4045 z"
       id="path2165"
       transform="matrix(0.75000002,0,0,-0.75000002,0,1080)" /><path
       style="fill:#ffcc00;fill-opacity:0.162228;stroke-width:6.38363"
       d="m 276.21399,1195.9392 c 2.06403,-5.4289 19.23974,-38.5787 27.98204,-54.0065 6.15995,-10.8707 9.20457,-15.3341 9.65645,-14.1566 0.7374,1.9217 -22.09629,45.9042 -31.86527,61.3793 -1.38755,2.198 -2.83215,5.2288 -3.21021,6.7352 -0.37806,1.5063 -1.33953,2.7387 -2.1366,2.7387 -1.1134,0 -1.21221,-0.6234 -0.42641,-2.6901 z"
       id="path2243"
       transform="matrix(0.75000002,0,0,-0.75000002,0,1080)" /></g></svg>
