<?xml version="1.0" encoding="UTF-8" standalone="no"?>
<!-- Created with Inkscape (http://www.inkscape.org/) -->

<svg
   version="1.1"
   id="svg2"
   xml:space="preserve"
   width="1440"
   height="1440"
   viewBox="0 0 1440 1440"
   sodipodi:docname="Glider_rotated.svg"
   inkscape:version="1.2.2 (b0a8486541, 2022-12-01)"
   xmlns:inkscape="http://www.inkscape.org/namespaces/inkscape"
   xmlns:sodipodi="http://sodipodi.sourceforge.net/DTD/sodipodi-0.dtd"
   xmlns="http://www.w3.org/2000/svg"
   xmlns:svg="http://www.w3.org/2000/svg"><defs
     id="defs6"><clipPath
       clipPathUnits="userSpaceOnUse"
       id="clipPath16"><path
         d="M 0,1080 H 1080 V 0 H 0 Z"
         id="path14" /></clipPath></defs><sodipodi:namedview
     id="namedview4"
     pagecolor="#ffffff"
     bordercolor="#666666"
     borderopacity="1.0"
     inkscape:pageshadow="2"
     inkscape:pageopacity="0.0"
     inkscape:pagecheckerboard="0"
     showgrid="false"
     inkscape:zoom="0.47158033"
     inkscape:cx="1179.0144"
     inkscape:cy="766.57142"
     inkscape:window-width="1854"
     inkscape:window-height="1131"
     inkscape:window-x="0"
     inkscape:window-y="0"
     inkscape:window-maximized="1"
     inkscape:current-layer="g8"
     inkscape:showpageshadow="2"
     inkscape:deskcolor="#d1d1d1" /><g
     id="g8"
     inkscape:groupmode="layer"
     inkscape:label="Glider gray"
     transform="matrix(1.3333333,0,0,-1.3333333,0,1440)"><g
       id="g10"
       transform="matrix(-0.17848637,-0.98394238,-0.98394238,0.17848637,1229.2057,1028.1596)"><g
         id="g12"
         clip-path="url(#clipPath16)"><g
           id="g18"
           transform="translate(914,1027.728)"><path
             d="m 0,0 c 0,0 -4.733,-2.489 -24.764,-26.721 -20.031,-24.232 -80.717,-97.634 -80.717,-97.634 l 2.051,-3.061 81.679,97.993 c 0,0 16.542,19.686 21.751,29.423"
             style="fill:#b2b2b2;fill-opacity:1;fill-rule:nonzero;stroke:none"
             id="path20" /></g><g
           id="g22"
           transform="translate(892.9153,1000.9537)"><path
             d="m 0,0 c 10.778,13.354 15.941,20.748 18.319,24.514 2.046,1.878 2.766,2.26 2.766,2.26 C 15.876,17.038 -0.666,-2.649 -0.666,-2.649 l -81.679,-97.993 -0.577,0.862 C -71.398,-86.016 -15.805,-19.582 0,0"
             style="fill:#565656;fill-opacity:1;fill-rule:nonzero;stroke:none"
             id="path24" /></g><g
           id="g26"
           transform="translate(711.5381,775.8247)"><path
             d="m 0,0 c -1.217,2.083 -3.223,4.202 -6.227,5.191 l 91.294,113.144 6.805,-5.542 z"
             style="fill:#8e8e8e;fill-opacity:1;fill-rule:nonzero;stroke:none"
             id="path28" /></g><g
           id="g30"
           transform="translate(796.3108,896.9796)"><path
             d="m 0,0 -94.719,-117.389 c 7.737,-0.006 9.374,-7.636 9.374,-7.636 L 9.913,-8.074 Z M 0.59,-5.639 4.286,-8.65 -84.68,-117.875 c -0.862,0.99 -1.905,1.91 -3.148,2.656 z"
             style="fill:#565656;fill-opacity:1;fill-rule:nonzero;stroke:none"
             id="path32" /></g><g
           id="g34"
           transform="translate(679.5176,725.416)"><path
             d="m 0,0 c -1.464,2.638 -3.728,5.672 -7.138,8.067 -3.628,2.547 -7.75,3.656 -11.239,4.348 5.892,3.342 15.813,10.076 25.945,21.885 10.992,12.809 14.787,17.203 16.065,18.675 1.596,-0.184 4.786,-1.064 6.259,-5.105 C 25.722,43.129 6.379,20.415 0,0"
             style="fill:#8e8e8e;fill-opacity:1;fill-rule:nonzero;stroke:none"
             id="path36" /></g><g
           id="g38"
           transform="translate(702.4429,780.4371)"><path
             d="m 0,0 c -0.106,0 -0.164,-0.003 -0.164,-0.003 0,0 -1.236,-1.381 -16.71,-19.416 -15.475,-18.034 -30.589,-24.042 -30.589,-24.042 4.001,-1 10.747,-1.266 16.25,-5.13 6.994,-4.911 8.751,-12.87 8.751,-12.87 4.11,23.363 31.673,53.823 31.673,53.823 C 7.297,-0.325 1.088,0 0,0 m 1.481,-4.208 c 1.041,-0.298 2.27,-0.998 3.142,-2.59 -5.164,-5.978 -21.021,-25.211 -28.104,-43.756 -1.411,1.835 -3.194,3.664 -5.433,5.237 -2.351,1.65 -4.853,2.734 -7.27,3.495 6.023,3.912 14.135,10.23 22.345,19.799 9.386,10.938 13.524,15.738 15.32,17.815"
             style="fill:#565656;fill-opacity:1;fill-rule:nonzero;stroke:none"
             id="path40" /></g><g
           id="g42"
           transform="translate(794.6625,894.9559)"><path
             d="m 0,0 c 0,0 3.152,0.014 6.456,-2.678 3.305,-2.691 3.752,-4.915 3.752,-4.915 0,0 5.028,3.308 6.911,6.438 2.22,3.689 3.495,8.147 0.144,11.168 C 13.815,13.121 8.916,10.962 6.559,9.017 4.165,7.041 0.792,1.936 0,0"
             style="fill:#565656;fill-opacity:1;fill-rule:nonzero;stroke:none"
             id="path44" /></g><g
           id="g46"
           transform="translate(790.4773,877.3304)"><path
             d="M 0,0 C 0.912,-0.743 2.255,-0.606 2.998,0.306 3.741,1.219 3.604,2.561 2.691,3.304 1.779,4.048 0.437,3.91 -0.306,2.998 -1.05,2.085 -0.912,0.743 0,0"
             style="fill:#565656;fill-opacity:1;fill-rule:nonzero;stroke:none"
             id="path48" /></g><g
           id="g50"
           transform="translate(804.6935,893.2927)"><path
             d="M 0,0 C 0.912,-0.743 2.255,-0.606 2.998,0.306 3.741,1.219 3.604,2.561 2.691,3.304 1.779,4.048 0.437,3.91 -0.306,2.998 -1.05,2.085 -0.912,0.743 0,0"
             style="fill:#b2b2b2;fill-opacity:1;fill-rule:nonzero;stroke:none"
             id="path52" /></g><g
           id="g54"
           transform="translate(659.2816,735.1244)"><path
             d="m 0,0 c -1.063,-0.118 -1.792,-1.12 -1.567,-2.165 0.432,-1.999 2.092,-5.475 7.878,-9.783 5.755,-4.286 9.576,-3.945 11.427,-3.293 0.837,0.295 1.319,1.186 1.125,2.052 -0.419,1.87 -1.838,5.432 -6.615,9.323 C 7.331,0.139 2.458,0.273 0,0"
             style="fill:#174477;fill-opacity:1;fill-rule:nonzero;stroke:none"
             id="path56" /></g><g
           id="g58"
           transform="translate(549.2324,737.0889)"><path
             d="m 0,0 14.642,19.702 76.93,-39.631 -61.83,-45.398 z"
             style="fill:#706d61;fill-opacity:1;fill-rule:nonzero;stroke:none"
             id="path60" /></g><g
           id="g62"
           transform="translate(563.2813,759.3458)"><path
             d="m 0,0 -16.358,-22.011 31.251,-68.642 66.418,48.766 z m 1.186,-5.11 72.552,-37.375 -57.245,-42.03 -28.232,62.012 z"
             style="fill:#565656;fill-opacity:1;fill-rule:nonzero;stroke:none"
             id="path64" /></g><g
           id="g66"
           transform="translate(677.9336,718.1641)"><path
             d="M 0,0 81.753,-40.366 66.979,-58.505 -37.647,-65.062 Z"
             style="fill:#706d61;fill-opacity:1;fill-rule:nonzero;stroke:none"
             id="path68" /></g><g
           id="g70"
           transform="translate(677.1409,720.7862)"><path
             d="m 0,0 -40.456,-69.913 109.226,6.845 16.911,20.762 z M 1.587,-5.244 79.411,-43.67 66.773,-59.186 -33.254,-65.454 Z"
             style="fill:#565656;fill-opacity:1;fill-rule:nonzero;stroke:none"
             id="path72" /></g><g
           id="g74"
           transform="translate(570.6401,666.1918)"><path
             d="m 0,0 c 0,0 -7.96,-12.611 21.84,-35.849 29.8,-23.238 36.222,-11.444 36.222,-11.444 0,0 6.046,17.063 -20.686,37.266 C 10.644,10.176 0,0 0,0"
             style="fill:#0b131f;fill-opacity:1;fill-rule:nonzero;stroke:none"
             id="path76" /></g><g
           id="g78"
           transform="translate(596.7985,637.8184)"><path
             d="m 0,0 c -11.405,9.289 -18.326,19.673 -15.459,23.192 2.867,3.52 14.436,-1.157 25.84,-10.447 C 21.786,3.456 28.707,-6.927 25.84,-10.447 22.974,-13.966 11.405,-9.289 0,0 M -3.191,-3.682 C 11.017,-15.255 25.978,-20.41 30.225,-15.196 34.472,-9.982 26.397,3.627 12.188,15.2 -2.02,26.773 -16.981,31.928 -21.228,26.714 -25.475,21.499 -17.4,7.891 -3.191,-3.682"
             style="fill:#98a0ac;fill-opacity:1;fill-rule:nonzero;stroke:none"
             id="path80" /></g><g
           id="g82"
           transform="translate(570.0488,662.2671)"><path
             d="m 0,0 c 6.231,6.37 29.586,29.876 52.635,48.37 23.788,19.087 31.781,23.928 33.192,24.732 0.336,0.045 0.989,0.115 1.875,0.115 2.658,0 7.905,-0.641 13.179,-4.936 4.883,-3.977 6.779,-8.828 7.31,-10.474 -2.663,-6.328 -24.614,-57.803 -50.79,-99.211 z"
             style="fill:#8e8e8e;fill-opacity:1;fill-rule:nonzero;stroke:none"
             id="path84" /></g><g
           id="g86"
           transform="translate(657.751,737.4841)"><path
             d="m 0,0 c -1.584,0 -2.534,-0.196 -2.534,-0.196 0,0 -6.59,-3.271 -33.786,-25.091 -27.196,-21.822 -54.431,-50.197 -54.431,-50.197 l 61,-44 c 28.73,44.913 52.358,101.951 52.358,101.951 0,0 -1.557,6.765 -8.166,12.148 C 8.778,-0.773 3.142,0 0,0 m 0,-4 c 2.393,0 7.122,-0.583 11.915,-4.487 3.929,-3.2 5.74,-7.019 6.433,-8.854 -3.639,-8.589 -24.412,-56.73 -49.208,-96.411 l -53.783,38.794 c 7.977,8.084 29.54,29.471 50.826,46.551 22.513,18.063 30.634,23.209 32.573,24.351 C -0.943,-4.027 -0.52,-4 0,-4"
             style="fill:#565656;fill-opacity:1;fill-rule:nonzero;stroke:none"
             id="path88" /></g><g
           id="g90"
           transform="translate(620.8298,653.5797)"><path
             d="M 0,0 C 1.304,-1.062 3.221,-0.866 4.283,0.438 5.344,1.741 5.148,3.659 3.845,4.721 2.541,5.782 0.624,5.586 -0.438,4.283 -1.5,2.979 -1.304,1.062 0,0"
             style="fill:#565656;fill-opacity:1;fill-rule:nonzero;stroke:none"
             id="path92" /></g><g
           id="g94"
           transform="translate(654.1169,730.1168)"><path
             d="M 0,0 C 1.043,-0.849 2.577,-0.693 3.426,0.35 4.276,1.393 4.119,2.927 3.076,3.776 2.033,4.626 0.499,4.469 -0.35,3.426 -1.2,2.383 -1.043,0.849 0,0"
             style="fill:#565656;fill-opacity:1;fill-rule:nonzero;stroke:none"
             id="path96" /></g><g
           id="g98"
           transform="translate(667.8065,718.9665)"><path
             d="M 0,0 C 1.043,-0.849 2.577,-0.693 3.426,0.35 4.276,1.393 4.119,2.927 3.076,3.776 2.033,4.626 0.499,4.469 -0.35,3.426 -1.2,2.383 -1.043,0.849 0,0"
             style="fill:#565656;fill-opacity:1;fill-rule:nonzero;stroke:none"
             id="path100" /></g><g
           id="g102"
           transform="translate(635.4672,717.8244)"><path
             d="m 0,0 -11.399,6.132 c -0.149,0.08 -0.3,0.155 -0.453,0.224 -2.219,1.004 -4.821,0.652 -6.824,-0.735 L -21.17,3.894 -36.489,-8.488 c -1.987,-1.606 -3.371,-3.837 -3.929,-6.33 l -4.781,-21.393 c 0,0 -0.781,-2.335 -2.227,-3.666 -0.465,-0.427 -0.605,-1.101 -0.311,-1.661 l 1.141,-2.173 10.732,9.32 c -1.921,1.095 -2.922,3.298 -2.485,5.465 l 1.853,9.184 c 0.386,3.004 1.726,6.888 4.263,9.09 l 9.491,8.76 c 2.779,2.448 6.03,4.511 8.545,3.26 v 0 L -9.81,-1.01 c 1.515,-0.821 1.954,-2.817 0.882,-4.165 -0.018,-0.024 -0.037,-0.047 -0.056,-0.071 l 1.031,-1.625 z"
             style="fill:#b2b2b2;fill-opacity:1;fill-rule:nonzero;stroke:none"
             id="path104" /></g><g
           id="g106"
           transform="translate(672.6045,708.0112)"><path
             d="M 0,0 48.938,29.59 44.133,22.159 -26.904,-45.752 Z"
             style="fill:#8e8e8e;fill-opacity:1;fill-rule:nonzero;stroke:none"
             id="path108" /></g><g
           id="g110"
           transform="translate(727.9332,743.8037)"><path
             d="m 0,0 -56.796,-34.343 -34.452,-58.588 81.604,78.015 z m -12.84,-12.438 -60.377,-57.722 19.356,32.918 z"
             style="fill:#565656;fill-opacity:1;fill-rule:nonzero;stroke:none"
             id="path112" /></g><g
           id="g114"
           transform="translate(492.6911,582.7862)"><path
             d="m 0,0 c 0,0 -1.66,-5.656 12.555,-21.946 10.466,-11.993 24.408,-22.557 32.274,-27.858 4.154,-2.8 11.004,-6.128 15.764,-7.689 4.141,-1.357 9.009,-2.748 11.159,-0.95 4.317,3.61 -17.942,35.089 -17.942,35.089 L 34.071,-8.062 14.264,-0.566 4.107,1.425 C 4.107,1.425 1.626,1.758 0,0"
             style="fill:#9fa7b3;fill-opacity:1;fill-rule:nonzero;stroke:none"
             id="path116" /></g><g
           id="g118"
           transform="translate(565.1387,528.6465)"><path
             d="m 0,0 c -2.671,7.374 -9.987,23.963 -25.137,36.303 -15.453,12.587 -32.942,17.874 -43.244,19.4 11.118,12.475 55.318,61.829 74.714,79.887 0.247,0.009 0.561,0.016 0.935,0.016 4.492,0 16.294,-0.961 28.84,-9.86 C 50.339,115.652 58.443,101.129 61.403,90.579 57.356,84.188 27.859,37.826 0,0"
             style="fill:#8e8e8e;fill-opacity:1;fill-rule:nonzero;stroke:none"
             id="path120" /></g><g
           id="g122"
           transform="translate(572.4071,666.2523)"><path
             d="m 0,0 c -1.138,0 -1.767,-0.06 -1.767,-0.06 -22.144,-20.44 -77.949,-83.406 -77.949,-83.406 9.509,-0.62 29.047,-5.54 46.048,-19.388 19.354,-15.764 25.704,-39.055 25.704,-39.055 30.881,41.532 64.259,94.556 64.259,94.556 -2.851,10.96 -11.367,26.534 -26.298,37.124 C 16.902,-0.94 4.488,0 0,0 m 0,-4 v 0 c 4.301,0 15.607,-0.925 27.683,-9.491 13.414,-9.515 21.305,-23.458 24.278,-33.23 -5.355,-8.439 -32.443,-50.833 -58.689,-86.766 -3.525,8.527 -10.954,22.771 -24.414,33.735 -14.097,11.482 -29.886,17.024 -40.627,19.193 13.868,15.523 53.24,59.287 71.64,76.559 0.043,0 0.085,0 0.129,0"
             style="fill:#565656;fill-opacity:1;fill-rule:nonzero;stroke:none"
             id="path124" /></g><g
           id="g126"
           transform="translate(494.6136,585.1465)"><path
             d="m 0,0 c 0,0 -1.66,-5.656 12.555,-21.946 10.466,-11.993 24.408,-22.557 32.274,-27.858 4.154,-2.8 11.004,-6.128 15.764,-7.689 4.141,-1.357 9.524,-3.226 11.159,-0.95 1.45,2.019 -19.48,33.201 -19.48,33.201 L 32.621,-10.807 13.967,-1.895 3.81,0.096 C 3.81,0.096 1.626,1.758 0,0"
             style="fill:#9fa7b3;fill-opacity:1;fill-rule:nonzero;stroke:none"
             id="path128" /></g><g
           id="g130"
           transform="translate(559.9847,543.9747)"><path
             d="m 0,0 c 2.964,-5.02 4.511,-9.946 5.471,-13.33 l -4.108,-2.151 -21.311,9.506 -15.227,9.262 -14.337,13.248 -11.14,13.225 -2.534,10.476 18.128,-3.772 c 0.756,-4.537 3.819,-11.636 17.486,-22.17 C -17.043,6.179 -7.03,2.069 0,0"
             style="fill:#23221e;fill-opacity:1;fill-rule:nonzero;stroke:none"
             id="path132" /></g><g
           id="g134"
           transform="translate(558.3403,532.5137)"><path
             d="m 0,0 c 1.578,-0.495 3.129,-0.978 5.349,-0.653 1.525,-3.441 2.141,-6.079 1.073,-6.996 -2.126,-1.825 -7.012,-0.497 -11.17,0.807 -4.779,1.499 -11.671,4.74 -15.86,7.486 -7.934,5.2 -22.011,15.584 -32.63,27.442 -14.422,16.106 -12.835,21.783 -12.835,21.783 1.603,1.779 4.089,1.477 4.089,1.477 l 5.284,-0.452 c -0.209,-2.185 2.02,-9.221 8.132,-16.046 C -37.949,22.99 -25.838,13.033 -17.71,8.143 -10.332,3.704 -4.779,1.499 0,0"
             style="fill:#424038;fill-opacity:1;fill-rule:nonzero;stroke:none"
             id="path136" /></g><g
           id="g138"
           transform="translate(538,562)"><path
             d="m 0,0 c -17,13.847 -35.8,20.167 -45.309,20.786 0,0 1.13,1.274 3.126,3.515 5.407,-0.299 15.896,-1.869 28.926,-8.754 19.645,-10.381 29.179,-22.982 33.306,-29.484 3.561,-5.611 7.059,-13.802 8.706,-20.594 -0.772,-1.048 -1.543,-2.091 -2.312,-3.126 0,0 -7.089,21.893 -26.443,37.657"
             style="fill:#565656;fill-opacity:1;fill-rule:nonzero;stroke:none"
             id="path140" /></g><g
           id="g142"
           transform="translate(542.4746,565.0933)"><path
             d="M 0,0 2.494,3.062 C 2.596,3.187 2.577,3.371 2.452,3.473 L -0.386,5.785 C -0.518,5.893 -0.713,5.873 -0.821,5.74 L -3.304,2.691 C -3.311,2.683 -3.31,2.67 -3.301,2.663 l 3.272,-2.666 C -0.02,-0.01 -0.007,-0.009 0,0"
             style="fill:#565656;fill-opacity:1;fill-rule:nonzero;stroke:none"
             id="path144" /></g><g
           id="g146"
           transform="translate(605.351,653.8099)"><path
             d="m 0,0 -1.183,-1.4 c -0.686,-0.813 -0.584,-2.028 0.228,-2.715 l 0.226,-0.19 c 0.861,-0.728 2.148,-0.619 2.875,0.241 l 1.097,1.298 z"
             style="fill:#565656;fill-opacity:1;fill-rule:nonzero;stroke:none"
             id="path148" /></g><g
           id="g150"
           transform="translate(415.7754,338.9531)"><path
             d="m 0,0 c -2.972,7.689 -12.042,27.252 -31.905,42.157 -17.417,13.071 -33.981,15.862 -41.287,16.435 8.426,11.38 39.053,52.478 67.995,88.011 36.556,44.881 77.417,89.214 82.948,95.19 1.739,-0.116 6.066,-0.567 12.073,-2.309 7.272,-2.109 18.568,-6.597 31.082,-15.999 0.161,-0.126 18.339,-14.435 25.559,-37.719 C 141.354,178.775 103.853,127.604 67.819,81.584 35.499,40.308 7.873,8.853 0,0"
             style="fill:#8e8e8e;fill-opacity:1;fill-rule:nonzero;stroke:none"
             id="path152" /></g><g
           id="g154"
           transform="translate(492.6911,582.7862)"><path
             d="m 0,0 c 0,0 -44.061,-47.346 -83.663,-95.967 -34.22,-42.013 -70.309,-91.141 -70.309,-91.141 0,0 0.203,0.009 0.591,0.009 3.574,0 22.81,-0.756 43.36,-16.177 24.492,-18.379 32.346,-44.406 32.346,-44.406 0,0 31.52,34.861 70.153,84.2 39.043,49.862 79.274,105.039 79.274,105.039 -7.294,24.787 -26.561,39.694 -26.561,39.694 C 20.348,-0.084 0,0 0,0 m 1.639,-4.118 c 5.174,-0.515 21.754,-3.267 41.121,-17.807 0.631,-0.497 17.438,-13.916 24.576,-35.781 -6.943,-9.485 -43.164,-58.811 -78.008,-103.31 -29.838,-38.107 -55.671,-67.832 -65.615,-79.092 -3.991,9.214 -13.321,26.515 -31.333,40.032 -15.404,11.559 -30.209,15.268 -38.804,16.443 10.6,14.268 38.962,52.114 65.862,85.139 35.309,43.35 74.644,86.195 82.201,94.376"
             style="fill:#565656;fill-opacity:1;fill-rule:nonzero;stroke:none"
             id="path156" /></g><g
           id="g158"
           transform="translate(338.7189,395.6785)"><path
             d="m 0,0 c 0,0 -4.386,-12.859 29.602,-40.542 33.988,-27.684 46.695,-20.033 46.695,-20.033 0,0 3.388,16.93 -28.711,43.076 C 18.318,6.339 0,0 0,0"
             style="fill:#565656;fill-opacity:1;fill-rule:nonzero;stroke:none"
             id="path160" /></g><g
           id="g162"
           transform="translate(369.8588,357.0244)"><path
             d="M 0,0 C 21.714,-17.687 39.633,-23.644 40.052,-19.274 40.471,-14.904 31.78,2.383 14.314,16.609 -4.587,32.005 -20.627,36.562 -26.979,35.324 -31.647,34.414 -18.901,15.395 0,0"
             style="fill:#565656;fill-opacity:1;fill-rule:nonzero;stroke:none"
             id="path164" /></g><g
           id="g166"
           transform="translate(382.67,379.5104)"><path
             d="m 0,0 c -22.783,17.097 -43.951,16.168 -43.951,16.168 0,0 1.391,1.893 3.877,5.243 6.414,-0.52 20.743,-2.99 38.078,-14.23 22.168,-14.374 34.469,-35.509 37.981,-47.509 -2.358,-2.662 -3.639,-4.079 -3.639,-4.079 0,0 -7.853,26.028 -32.346,44.407"
             style="fill:#565656;fill-opacity:1;fill-rule:nonzero;stroke:none"
             id="path168" /></g><g
           id="g170"
           transform="translate(391.5441,377.8637)"><path
             d="M 0,0 2.494,3.062 C 2.596,3.187 2.577,3.371 2.452,3.473 L -0.386,5.785 C -0.518,5.893 -0.713,5.873 -0.821,5.74 L -3.304,2.691 C -3.311,2.683 -3.31,2.67 -3.301,2.663 l 3.272,-2.666 C -0.02,-0.01 -0.007,-0.009 0,0"
             style="fill:#565656;fill-opacity:1;fill-rule:nonzero;stroke:none"
             id="path172" /></g><g
           id="g174"
           transform="translate(372.1658,359.8568)"><path
             d="m 0,0 c 5.996,-4.884 12.665,-6.624 14.894,-3.887 2.23,2.738 -0.823,8.916 -6.82,13.8 C 2.078,14.797 -4.59,16.537 -6.82,13.8 -9.05,11.062 -5.996,4.884 0,0"
             style="fill:#706d61;fill-opacity:1;fill-rule:nonzero;stroke:none"
             id="path176" /></g><g
           id="g178"
           transform="translate(372.9348,360.8008)"><path
             d="M 0,0 C 5.996,-4.884 12.32,-7.047 14.125,-4.831 15.93,-2.615 12.533,3.141 6.536,8.025 0.54,12.909 -5.784,15.072 -7.589,12.856 -9.394,10.64 -5.996,4.884 0,0"
             style="fill:#b1b5bb;fill-opacity:1;fill-rule:nonzero;stroke:none"
             id="path180" /></g><g
           id="g182"
           transform="translate(375.0323,361.448)"><path
             d="M 0,0 C 2.346,-1.911 4.937,-2.615 5.786,-1.572 6.636,-0.529 5.422,1.865 3.076,3.776 0.73,5.688 -1.861,6.391 -2.71,5.349 -3.56,4.306 -2.346,1.911 0,0"
             style="fill:#706d61;fill-opacity:1;fill-rule:nonzero;stroke:none"
             id="path184" /></g><g
           id="g186"
           transform="translate(375.4168,361.9201)"><path
             d="M 0,0 C 2.346,-1.911 4.937,-2.615 5.786,-1.572 6.636,-0.529 5.422,1.865 3.076,3.776 0.73,5.688 -1.861,6.391 -2.711,5.349 -3.56,4.306 -2.346,1.911 0,0"
             style="fill:#d2d8dc;fill-opacity:1;fill-rule:nonzero;stroke:none"
             id="path188" /></g><g
           id="g190"
           transform="translate(308.0957,266.2354)"><path
             d="m 0,0 -21.525,15.929 -18.94,9.768 c 5.129,7.761 24.923,37.67 32.71,48.888 7.591,10.937 34.907,47.183 39.292,52.996 4.565,-0.059 24.011,-1.33 44.168,-17.748 C 95.784,93.479 103.077,74.091 104.588,69.49 100.104,64.478 76.447,38.052 55.224,14.585 32.495,-10.549 20.234,-22.797 19.442,-23.585 l -3.693,-3.254 z"
             style="fill:#8e8e8e;fill-opacity:1;fill-rule:nonzero;stroke:none"
             id="path192" /></g><g
           id="g194"
           transform="translate(339.2737,395.8189)"><path
             d="m 0,0 c -0.421,0 -0.643,-0.01 -0.643,-0.01 0,0 -31.595,-41.834 -39.934,-53.848 -9.052,-13.043 -33.963,-50.784 -33.963,-50.784 l 20.776,-10.716 21.068,-15.589 16.769,-28.579 5.558,4.896 c 0,0 12.182,12.064 35.899,38.29 23.716,26.225 50.125,55.755 50.125,55.755 0,0 -6.263,23.161 -29.865,42.386 C 24.494,-0.853 3.857,0 0,0 m 1.335,-4.03 c 5.778,-0.24 23.501,-2.261 41.929,-17.271 18.321,-14.923 25.782,-32.498 27.872,-38.335 -5.985,-6.687 -28.381,-31.694 -48.573,-54.021 -22.362,-24.728 -34.57,-36.958 -35.667,-38.051 l -1.828,-1.61 -14.314,24.395 -0.414,0.705 -0.657,0.486 -21.067,15.589 -0.259,0.192 -0.287,0.148 -16.816,8.673 c 6.512,9.845 24.205,36.545 31.455,46.991 7.273,10.478 32.749,44.314 38.626,52.109"
             style="fill:#565656;fill-opacity:1;fill-rule:nonzero;stroke:none"
             id="path196" /></g><g
           id="g198"
           transform="translate(258.0498,280.5845)"><path
             d="m 0,0 c 0,0 -5.804,-9.15 23.463,-32.989 10.514,-8.563 18.619,-12.086 24.406,-14.382 11.276,-4.473 14.178,-0.52 14.178,-0.52 0,0 4.978,16.326 -20.619,36.719 C 31.928,-3.604 12.88,7.041 0,0"
             style="fill:#767b84;fill-opacity:1;fill-rule:nonzero;stroke:none"
             id="path200" /></g><g
           id="g202"
           transform="translate(282.282,248.54)"><path
             d="M 0,0 C 15.382,-12.529 32.937,-17.405 34.859,-15.045 36.397,-13.156 30.168,3.696 14.786,16.225 -0.596,28.754 -20.249,32.983 -22.556,30.15 -25.247,26.846 -15.382,12.529 0,0"
             style="fill:#484c50;fill-opacity:1;fill-rule:nonzero;stroke:none"
             id="path204" /></g><g
           id="g206"
           transform="translate(328.3228,350.8242)"><path
             d="m 0,0 c -2.827,0 -5.306,0.802 -7.168,2.319 -2.273,1.851 -3.349,4.658 -3.028,7.904 0.313,3.165 1.925,6.614 4.662,9.974 4.288,5.265 11.108,8.942 16.583,8.942 2.804,0 5.251,-0.944 7.077,-2.73 C 23.11,21.535 21.638,13.587 14.377,6.16 10.774,2.476 4.996,0 0,0 0,0 0,0 0,0"
             style="fill:#706d61;fill-opacity:1;fill-rule:nonzero;stroke:none"
             id="path208" /></g><g
           id="g210"
           transform="translate(339.3722,381.463)"><path
             d="m 0,0 c -5.896,0 -13.193,-3.904 -17.746,-9.494 -2.924,-3.59 -4.65,-7.315 -4.992,-10.774 -0.372,-3.763 0.897,-7.035 3.573,-9.215 2.133,-1.738 4.94,-2.656 8.115,-2.656 5.374,0 11.583,2.657 15.45,6.612 7.899,8.078 9.361,16.859 3.725,22.37 C 6.013,-1.092 3.203,0 0,0 m 0,-3 c 2.277,0 4.378,-0.689 6.027,-2.302 4.809,-4.701 2.105,-12.117 -3.772,-18.128 -3.158,-3.229 -8.538,-5.709 -13.305,-5.709 -2.331,0 -4.515,0.593 -6.221,1.982 -3.776,3.076 -3.458,9.251 1.851,15.768 C -11.695,-6.815 -5.359,-3 0,-3"
             style="fill:#565656;fill-opacity:1;fill-rule:nonzero;stroke:none"
             id="path212" /></g><g
           id="g214"
           transform="translate(339.5876,373.8631)"><path
             d="M 0,0 C 0.472,-0.391 1.166,-0.319 1.55,0.161 1.934,0.641 1.863,1.348 1.391,1.739 0.92,2.13 0.226,2.058 -0.158,1.578 -0.543,1.097 -0.472,0.391 0,0"
             style="fill:#cccccc;fill-opacity:1;fill-rule:nonzero;stroke:none"
             id="path216" /></g><g
           id="g218"
           transform="translate(326.6045,368.0023)"><path
             d="M 0,0 C 0.327,-0.324 0.936,-0.226 1.36,0.218 1.784,0.662 1.863,1.284 1.536,1.608 1.209,1.932 0.6,1.834 0.175,1.39 -0.249,0.946 -0.327,0.324 0,0"
             style="fill:#cccccc;fill-opacity:1;fill-rule:nonzero;stroke:none"
             id="path220" /></g><g
           id="g222"
           transform="translate(341.2028,361.6777)"><path
             d="M 0,0 C 0.472,-0.391 1.166,-0.319 1.55,0.161 1.934,0.641 1.863,1.348 1.391,1.739 0.92,2.13 0.226,2.058 -0.158,1.578 -0.543,1.097 -0.472,0.391 0,0"
             style="fill:#cccccc;fill-opacity:1;fill-rule:nonzero;stroke:none"
             id="path224" /></g><g
           id="g226"
           transform="translate(325.4059,355.2519)"><path
             d="M 0,0 C 0.472,-0.391 1.166,-0.319 1.55,0.161 1.934,0.641 1.863,1.348 1.391,1.739 0.92,2.13 0.226,2.058 -0.158,1.578 -0.543,1.097 -0.472,0.391 0,0"
             style="fill:#cccccc;fill-opacity:1;fill-rule:nonzero;stroke:none"
             id="path228" /></g><g
           id="g230"
           transform="translate(382.021,315.1045)"><path
             d="m 0,0 c -3.924,0 -7.56,1.908 -9.727,5.104 -4.641,6.845 -4.077,15.966 1.404,22.696 2.757,3.385 6.603,5.326 10.554,5.326 5.045,0 9.264,-3.019 11.284,-8.073 C 16.029,18.76 14.61,10.715 9.984,5.036 7.339,1.789 3.794,0 0.001,0 Z"
             style="fill:#706d61;fill-opacity:1;fill-rule:nonzero;stroke:none"
             id="path232" /></g><g
           id="g234"
           transform="translate(384.2519,349.73)"><path
             d="m 0,0 c -4.403,0 -8.674,-2.143 -11.717,-5.879 -5.903,-7.246 -6.498,-17.086 -1.482,-24.485 2.446,-3.608 6.546,-5.761 10.968,-5.761 4.253,0 8.212,1.984 11.147,5.588 4.96,6.089 6.471,14.738 3.761,21.521 C 10.454,-3.455 5.597,0 0,0 m 0,-3 c 4.091,0 7.995,-2.386 9.891,-7.13 2.326,-5.82 0.929,-13.32 -3.301,-18.512 -2.548,-3.13 -5.763,-4.483 -8.821,-4.483 -3.4,0 -6.607,1.675 -8.485,4.445 -4.647,6.854 -3.289,15.242 1.325,20.907 C -6.795,-4.586 -3.336,-3 0,-3"
             style="fill:#565656;fill-opacity:1;fill-rule:nonzero;stroke:none"
             id="path236" /></g><g
           id="g238"
           transform="translate(388.4937,339.2024)"><path
             d="M 0,0 C 0.434,-0.353 1.071,-0.288 1.425,0.146 1.778,0.579 1.712,1.217 1.279,1.57 0.845,1.923 0.208,1.858 -0.146,1.425 -0.499,0.991 -0.434,0.353 0,0"
             style="fill:#cccccc;fill-opacity:1;fill-rule:nonzero;stroke:none"
             id="path240" /></g><g
           id="g242"
           transform="translate(379.4844,321.7282)"><path
             d="M 0,0 C 0.434,-0.353 1.071,-0.288 1.424,0.146 1.778,0.579 1.712,1.217 1.279,1.57 0.845,1.923 0.208,1.858 -0.146,1.425 -0.499,0.991 -0.434,0.353 0,0"
             style="fill:#cccccc;fill-opacity:1;fill-rule:nonzero;stroke:none"
             id="path244" /></g><g
           id="g246"
           transform="translate(376.2111,336.1475)"><path
             d="M 0,0 C 0.434,-0.353 1.071,-0.288 1.425,0.146 1.778,0.579 1.712,1.217 1.279,1.57 0.845,1.923 0.208,1.858 -0.146,1.425 -0.499,0.991 -0.434,0.353 0,0"
             style="fill:#cccccc;fill-opacity:1;fill-rule:nonzero;stroke:none"
             id="path248" /></g><g
           id="g250"
           transform="translate(390.5003,326.4971)"><path
             d="M 0,0 C 0.374,-0.19 0.882,0.059 1.136,0.558 1.39,1.056 1.293,1.614 0.919,1.805 0.545,1.995 0.036,1.745 -0.217,1.247 -0.471,0.749 -0.374,0.19 0,0"
             style="fill:#cccccc;fill-opacity:1;fill-rule:nonzero;stroke:none"
             id="path252" /></g><g
           id="g254"
           transform="translate(286.5114,253.7326)"><path
             d="M 0,0 C 2.868,-2.336 6.053,-3.173 7.115,-1.869 8.177,-0.566 6.713,2.385 3.845,4.721 0.977,7.056 -2.208,7.893 -3.27,6.59 -4.332,5.286 -2.868,2.336 0,0"
             style="fill:#c3c9d5;fill-opacity:1;fill-rule:nonzero;stroke:none"
             id="path256" /></g><g
           id="g258"
           transform="translate(320.7407,235.4023)"><path
             d="m 0,0 c -5.083,13.887 -14.004,25.702 -25.896,34.266 -2.3,1.656 -4.683,3.213 -7.084,4.625 -11.583,6.813 -22.346,7.793 -26.947,7.861 l 4.802,7.609 c 0.632,0.057 1.691,0.125 3.09,0.125 7.041,0 20.882,-1.653 34.476,-12.725 C -7.083,33.228 -1.102,23.79 2.071,17.375 4.731,11.995 5.918,7.78 6.325,6.117 Z"
             style="fill:#8e8e8e;fill-opacity:1;fill-rule:nonzero;stroke:none"
             id="path260" /></g><g
           id="g262"
           transform="translate(268.7064,291.389)"><path
             d="m 0,0 c -2.512,0 -3.973,-0.212 -3.973,-0.212 l -6.684,-10.593 c 0.673,0.047 1.415,0.074 2.221,0.074 6.316,0 16.471,-1.624 26.73,-7.658 2.496,-1.469 4.82,-3.002 6.968,-4.549 12.186,-8.777 21.257,-21.242 26.036,-35.479 0.031,-0.092 0.062,-0.185 0.093,-0.278 l 8.616,8.333 c 0,0 -3.814,20.382 -24.585,37.3 C 21.292,-1.553 6.796,0 0,0 m 0.001,-3 v 0 c 6.841,0 20.294,-1.61 33.527,-12.388 10.225,-8.329 16.074,-17.53 19.179,-23.781 2.268,-4.565 3.448,-8.271 3.981,-10.23 l -4.065,-3.931 c -5.299,13.243 -14.087,24.529 -25.607,32.826 -2.336,1.683 -4.759,3.264 -7.201,4.701 -10.05,5.911 -19.516,7.544 -25.062,7.95 l 3.021,4.788 C -1.65,-3.03 -0.899,-3 0.001,-3"
             style="fill:#565656;fill-opacity:1;fill-rule:nonzero;stroke:none"
             id="path264" /></g><g
           id="g266"
           transform="translate(306.0459,278.2324)"><path
             d="M 0,0 0.797,0.979 1.775,0.182 0.978,-0.797 Z"
             style="fill:#8e8e8e;fill-opacity:1;fill-rule:nonzero;stroke:none"
             id="path268" /></g><g
           id="g270"
           transform="translate(306.6715,281.1951)"><path
             d="M 0,0 C -0.09,0 -0.179,-0.039 -0.24,-0.114 L -2.723,-3.163 C -2.73,-3.171 -2.729,-3.184 -2.72,-3.191 l 3.273,-2.666 c 0.003,-0.003 0.008,-0.005 0.012,-0.005 0.006,0 0.012,0.003 0.016,0.008 l 2.494,3.062 c 0.102,0.125 0.083,0.309 -0.042,0.411 L 0.195,-0.07 C 0.138,-0.023 0.069,0 0,0"
             style="fill:#565656;fill-opacity:1;fill-rule:nonzero;stroke:none"
             id="path272" /></g><g
           id="g274"
           transform="translate(205.3794,147.5303)"><path
             d="M 0,0 C -1.836,0 -3.55,0.217 -5.107,0.645 -6.125,3.314 -9.066,13.533 -2.8,30.529 4.838,51.246 28.621,91.033 28.861,91.433 l 25.177,39.9 c 1.084,0.128 2.211,0.192 3.361,0.192 7.265,0 15.791,-2.563 24.658,-7.412 4.438,-2.426 8.867,-5.691 13.164,-9.705 7.911,-7.389 13.698,-16.453 16.737,-26.212 0.24,-0.77 0.459,-1.532 0.654,-2.275 L 72.403,48.492 C 72.007,48.122 32.929,11.696 14.412,3.492 14.259,3.419 7.315,0 0,0"
             style="fill:#8e8e8e;fill-opacity:1;fill-rule:nonzero;stroke:none"
             id="path276" /></g><g
           id="g278"
           transform="translate(262.7781,281.0552)"><path
             d="m 0,0 c -1.587,0 -3.107,-0.114 -4.554,-0.335 l -25.7,-40.729 c 0,0 -24.029,-40.105 -31.821,-61.241 -7.793,-21.135 -1.9,-32.217 -1.9,-32.217 2.143,-0.721 4.382,-1.004 6.577,-1.004 7.906,0 15.221,3.665 15.221,3.665 19.044,8.438 58.544,45.364 58.544,45.364 l 41.155,38.309 -0.092,-0.037 c -0.279,1.176 -0.604,2.345 -0.961,3.491 -3.237,10.394 -9.326,19.648 -17.281,27.079 -3.747,3.5 -8.341,7.139 -13.57,9.999 C 15.989,-2.391 7.286,0 0,0 m 0.001,-4 v 0 c 6.93,0 15.125,-2.478 23.697,-7.166 4.293,-2.347 8.586,-5.514 12.759,-9.412 7.658,-7.153 13.257,-15.917 16.193,-25.346 0.109,-0.35 0.213,-0.698 0.313,-1.043 L 13.636,-83.574 c -0.391,-0.365 -39.225,-36.562 -57.433,-44.63 l -0.087,-0.039 -0.077,-0.038 c -0.066,-0.033 -6.621,-3.245 -13.437,-3.245 -1.269,0 -2.467,0.113 -3.58,0.337 -0.374,1.21 -0.834,3.142 -1.032,5.765 -0.336,4.443 0.032,11.82 3.688,21.736 7.47,20.26 30.619,59.095 31.477,60.531 L -2.191,-4.086 C -1.476,-4.029 -0.744,-4 0.001,-4"
             style="fill:#565656;fill-opacity:1;fill-rule:nonzero;stroke:none"
             id="path280" /></g><g
           id="g282"
           transform="translate(211.0449,180.5)"><path
             d="m 0,0 c -0.459,1.112 -0.568,2.849 1.148,5.118 4.023,5.319 24.778,45.383 25.66,47.086 l 0.409,0.791 -0.498,0.738 c -0.344,0.515 -8.339,12.807 3.701,24.246 3.611,3.43 7.759,5.169 12.329,5.169 5.636,0 10.546,-2.649 12.711,-4.022 z"
             style="fill:#706d61;fill-opacity:1;fill-rule:nonzero;stroke:none"
             id="path284" /></g><g
           id="g286"
           transform="translate(253.7941,265.1487)"><path
             d="m 0,0 c -4.255,0 -8.943,-1.383 -13.362,-5.582 -13.151,-12.495 -3.911,-26.173 -3.911,-26.173 0,0 -21.532,-41.593 -25.524,-46.871 -3.992,-5.277 0.083,-8.586 0.083,-8.586 L 14.81,-5.142 C 14.81,-5.142 8.207,0.001 0,0 m 0.002,0 v -3 0 c 4.305,0 8.183,-1.678 10.552,-2.987 l -44.352,-63.278 c 7.291,13.183 17.614,33.089 19.189,36.13 l 0.802,1.578 -0.973,1.469 c -0.315,0.477 -7.6,11.799 3.484,22.331 C -7.974,-4.601 -4.173,-3 0,-3 Z"
             style="fill:#565656;fill-opacity:1;fill-rule:nonzero;stroke:none"
             id="path288" /></g></g></g><path
       style="fill:#ffcc00;fill-opacity:0.162228;stroke-width:9.04373"
       d="m 595.10156,571.97731 c -3.63627,2.75556 -9.45469,8.68092 -12.92984,13.16748 -3.77959,4.87965 -7.2507,7.98103 -8.63857,7.7185 -1.35781,-0.25686 -2.54199,0.73375 -2.85497,2.38827 -0.29415,1.55494 0.15899,2.92658 1.00696,3.04808 0.84799,0.12149 0.0343,3.64968 -1.80827,7.84042 -3.67295,8.35395 -7.40636,23.90358 -6.7214,27.99468 0.23876,1.42604 -0.32829,2.73109 -1.26009,2.90012 -1.85833,0.33709 -2.47507,-0.0394 -51.90454,-31.68621 l -34.23097,-21.91606 -0.16083,-6.19379 c -0.23694,-9.12502 3.80758,-21.92426 9.69765,-30.68909 5.47595,-8.14856 17.70332,-19.39421 21.95139,-20.18893 3.34926,-0.62656 83.09099,33.19105 92.07382,39.04754 2.00247,1.30555 1.31654,2.37318 -4.22034,6.56899 z"
       id="path1179" /><path
       style="fill:#ffcc00;fill-opacity:0.162228;stroke-width:9.04373"
       d="m 494.67159,528.0143 c -11.89918,8.18027 -23.88578,30.06001 -24.37016,44.48416 l -0.17237,5.13266 -4.90083,-3.24272 c -2.69544,-1.78351 -4.7429,-4.0775 -4.5499,-5.09776 0.4079,-2.15635 -9.42938,-9.07783 -12.22116,-8.59875 -1.85577,0.31844 -21.33471,-14.35411 -29.72058,-22.38714 -2.34659,-2.24783 -8.56833,-7.91962 -13.82613,-12.60397 -5.25779,-4.68434 -9.8332,-10.02509 -10.16755,-11.86832 -0.33436,-1.84324 -1.4902,-3.48115 -2.5685,-3.63981 -2.82846,-0.41616 0.26496,-11.03544 4.34239,-14.90688 4.15637,-3.94639 5.28305,-3.66906 45.75599,11.26263 17.54709,6.47365 32.12863,11.45492 32.4034,11.06948 0.27478,-0.38546 -0.94993,-1.81603 -2.72153,-3.17907 -1.77162,-1.36303 -2.73664,-2.56614 -2.14447,-2.67354 1.744,-0.31637 30.23842,10.31927 30.42664,11.35684 0.0946,0.52144 -2.40976,2.72293 -5.56524,4.89219 z m -21.50509,0.9521 c -2.69135,-0.50912 -5.45524,3.74384 -3.69998,5.69333 0.67831,0.75336 2.52421,1.13558 4.102,0.84937 3.38706,-0.61441 3.06308,-5.88722 -0.40202,-6.5427 z m -73.06594,-33.29156 c -1.71979,-0.0208 -2.36956,0.96727 -1.99477,3.03342 0.30572,1.68534 1.44264,2.90343 2.52648,2.70681 4.52663,-0.82112 4.07616,-5.6844 -0.53171,-5.74023 z"
       id="path1218" /><path
       style="fill:#ffcc00;fill-opacity:0.162228;stroke-width:9.04373"
       d="m 808.10528,684.53513 c -3.81703,2.97329 -10.18664,9.56012 -14.15464,14.63741 -3.96797,5.0773 -8.26182,9.43269 -9.54182,9.67864 -1.39784,0.2685 -2.01968,1.57186 -1.55705,3.26327 0.42369,1.54884 -0.69283,6.06448 -2.48106,10.03472 -3.75088,8.32781 -7.18092,21.65067 -7.43571,28.8816 -0.0968,2.74636 -0.48774,5.04994 -0.8688,5.11906 -0.91417,0.16583 -29.13744,-14.09014 -58.60595,-29.60267 -33.23053,-17.49291 -55.82687,-30.31575 -95.08691,-53.95936 -18.75059,-11.29219 -36.77971,-22.13336 -40.06474,-24.0915 -5.62578,-3.35346 -5.97735,-3.94063 -6.05185,-10.10791 -0.10395,-8.60446 6.04322,-29.35104 11.42722,-38.5666 4.61066,-7.89188 16.09861,-19.90193 23.83431,-24.91751 5.63397,-3.65288 0.1257,-5.73749 48.15479,18.22451 63.77418,31.81736 118.73483,61.25428 150.63881,80.68214 l 8.73351,5.31823 z"
       id="path1257" /><path
       style="fill:#ffcc00;fill-opacity:0.162228;stroke-width:9.04373"
       d="m 921.72297,753.82785 c -3.17841,2.04457 -8.60229,7.26176 -12.05301,11.59371 -3.45071,4.33196 -7.57879,7.99681 -9.17351,8.14413 -1.97255,0.18222 -2.67023,1.12096 -2.18221,2.93643 0.39454,1.46772 -0.51035,6.5708 -2.01089,11.34019 -1.50045,4.76938 -2.88281,12.4677 -3.07179,17.10735 l -0.34365,8.43575 -20.05801,-8.67862 c -11.03192,-4.77326 -26.98627,-11.88932 -35.45411,-15.81347 l -15.39605,-7.13485 3.05824,-4.07393 c 4.09122,-5.45001 2.47604,-15.23224 -3.54931,-21.4962 -4.95053,-5.14657 -17.29933,-9.32927 -21.47681,-7.27449 -4.20413,2.0679 -8.27649,9.3955 -7.52472,13.53966 0.78555,4.33051 -0.28732,4.64794 -5.58027,1.65105 -3.82344,-2.16483 -3.9836,-2.62406 -3.6137,-10.36152 1.03658,-21.68266 14.99877,-48.08034 32.71901,-61.86033 l 8.42286,-6.54999 7.56185,4.20032 c 4.15901,2.31016 7.59389,4.37676 7.63301,4.59245 0.0392,0.21565 -3.62703,0.75092 -8.14698,1.18938 -7.83872,0.76045 -8.42186,1.09134 -12.63233,7.16786 -3.8967,5.62366 -4.19999,6.97564 -2.58692,11.53106 4.43852,12.53461 21.87984,16.25781 32.3852,6.91324 4.71209,-4.19147 5.66839,-9.42172 2.96953,-16.24117 l -1.79542,-4.53666 6.51855,4.2126 c 3.58518,2.31694 18.91959,11.9835 34.07655,21.48122 15.15698,9.49771 29.70142,18.84332 32.32104,20.76798 l 4.76285,3.4994 z"
       id="path1296" /><path
       style="fill:#ffcc00;fill-opacity:0.162228;stroke-width:9.04373"
       d="m 1036.6512,857.76109 c -4.3775,0.79411 -11.552,0.96328 -15.9435,0.37601 -7.0875,-0.94787 -7.7344,-1.33337 -5.7593,-3.43222 1.4674,-1.55958 1.6344,-2.75506 0.4904,-3.51133 -1.5915,-1.05207 -84.33451,-39.44288 -88.73054,-41.16884 -2.15431,-0.84583 -4.25204,4.28664 -4.43291,10.84606 l -0.11618,4.21035 -5.33406,-2.0543 c -4.54334,-1.74975 -5.48829,-2.90447 -6.3744,-7.78931 -2.54803,-14.04653 10.97637,-41.13617 25.43106,-50.9388 l 6.40678,-4.34484 12.94466,9.69778 c 65.65319,49.18531 85.95339,67.79192 88.34459,80.97399 l 1.0325,5.69177 z"
       id="path1335" /><path
       style="fill:#ffd42a;fill-opacity:0.162228;stroke-width:9.04373"
       d="m 1035.2797,857.45437 c -11.6179,0.90054 -22.471,-0.4306 -20.1979,-2.47725 0.8541,-0.76901 1.4465,-1.9851 1.3165,-2.70227 -0.2149,-1.18431 -27.78061,-14.46815 -73.34681,-35.34565 -18.4894,-8.47148 -20.42343,-8.41559 -20.75494,0.59973 -0.23218,6.31394 -1.88129,7.1224 -7.12163,3.49133 -3.88754,-2.69373 -4.55273,-3.98491 -4.53422,-8.80093 0.0526,-13.70198 12.03189,-36.59764 24.32836,-46.4983 l 6.79817,-5.47363 12.04971,8.99735 c 62.54666,46.70249 83.83006,66.11893 89.18926,81.36564 l 2.137,6.07959 z"
       id="path1411" /><path
       style="fill:#ffd42a;fill-opacity:0.162228;stroke-width:9.04373"
       d="m 921.14924,754.13507 c -2.80044,2.00533 -7.95768,6.78266 -11.46037,10.61627 -3.50277,3.83363 -7.53879,7.42408 -8.96904,7.97883 -1.62124,0.62883 -3.12079,3.97703 -3.98247,8.8923 -0.76017,4.33605 -2.08333,11.78924 -2.94033,16.56268 -0.85699,4.7734 -1.36878,9.84679 -1.13723,11.27413 0.23148,1.42737 0.0212,2.6677 -0.46713,2.75629 -0.9505,0.17242 -54.18748,-23.27096 -63.27296,-27.8628 l -5.44039,-2.74958 2.2595,-4.26618 c 3.1439,-5.93608 1.20889,-15.48959 -4.27785,-21.12039 -4.51023,-4.62865 -15.36132,-9.22616 -19.92269,-8.44109 -3.66381,0.63056 -9.91047,9.9408 -9.22077,13.7429 0.6503,3.58493 -2.52712,4.63813 -5.77149,1.91306 -3.49352,-2.93432 -3.25087,-13.01131 0.63964,-26.56284 4.24359,-14.78142 18.09469,-35.83187 29.55233,-44.91265 l 7.69119,-6.09568 6.94768,3.94625 6.94773,3.94624 -7.97876,1.44734 c -7.08496,1.28521 -8.40885,2.08928 -11.81846,7.17798 -5.21735,7.78671 -4.08295,13.74534 3.74927,19.69361 4.88277,3.70827 7.12772,4.3475 13.41628,3.82021 5.19708,-0.43578 8.84798,-1.63205 11.70716,-3.83593 5.16869,-3.98418 5.89024,-5.76491 5.48673,-13.54068 l -0.32178,-6.19982 36.23896,23.04521 c 19.93149,12.67487 36.5086,23.5139 36.83806,24.08674 0.32947,0.57284 -1.6923,2.68227 -4.49281,4.6876 z"
       id="path1450" /><path
       style="fill:#ffd42a;fill-opacity:0.162228;stroke-width:9.04373"
       d="m 809.04853,683.06866 c -2.73111,2.15572 -8.39338,7.86522 -12.58278,12.6878 -4.18943,4.82258 -9.27275,10.0559 -11.29626,11.62959 -2.02351,1.57369 -3.5001,3.84812 -3.28131,5.05429 0.2188,1.20617 -1.54583,8.2066 -3.92144,15.55649 -2.3756,7.3499 -4.63192,16.3398 -5.01404,19.97753 -0.38212,3.63775 -1.19666,6.70513 -1.81009,6.81641 -1.35014,0.24491 -52.9853,-26.11697 -80.94296,-41.32474 -21.88297,-11.90339 -55.35865,-31.3963 -91.86096,-53.49071 -28.41791,-17.20101 -28.42558,-17.21521 -21.76717,-40.2642 3.47381,-12.025 5.9698,-17.23217 12.17771,-25.40522 10.44059,-13.74561 20.27568,-21.69817 25.27006,-20.4331 5.66052,1.43379 93.5936,45.81702 132.65244,66.95483 28.4481,15.3955 67.16258,37.32999 67.30863,38.13508 0.0186,0.10266 -2.20071,1.95024 -4.93183,4.10595 z"
       id="path1567" /><path
       style="fill:#ffd42a;fill-opacity:0.162228;stroke-width:9.04373"
       d="m 594.19912,572.11591 c -3.14582,2.70143 -8.47557,8.17864 -11.84387,12.17157 -3.3683,3.99295 -7.46824,7.70745 -9.11099,8.25446 -2.03583,0.67789 -2.84611,2.18419 -2.54486,4.73089 0.24308,2.05498 -1.55388,10.13744 -3.99324,17.96103 -2.43936,7.82358 -4.20594,15.48842 -3.92576,17.03297 0.28019,1.54457 -0.0147,3.2802 -0.65528,3.85695 -0.64058,0.57677 -20.08656,-10.99985 -43.21329,-25.72584 -41.45951,-26.39939 -42.05575,-26.85153 -42.55871,-32.27355 -1.30938,-14.11504 9.34685,-35.06308 23.5933,-46.37979 l 7.0522,-5.60193 12.67941,4.97246 c 20.2527,7.94243 75.71847,32.29068 78.08288,34.27664 1.7759,1.49163 1.14537,2.68198 -3.56179,6.72414 z"
       id="path1606" /><path
       style="fill:#ffd42a;fill-opacity:0.162228;stroke-width:9.04373"
       d="m 494.57379,527.24511 c -7.36371,4.74224 -19.32166,23.24523 -22.37954,34.62869 -1.51579,5.64279 -2.60147,11.11448 -2.4126,12.15929 0.59195,3.27447 -5.92276,0.22083 -7.64643,-3.58412 -0.84828,-1.87255 -7.81021,-7.28779 -15.47094,-12.03387 -13.84642,-8.57832 -38.46768,-29.04996 -47.29078,-39.32052 -7.44937,-8.67145 -8.51832,-13.00917 -4.8042,-19.49512 2.63879,-4.60813 3.95425,-5.56345 7.57137,-5.49852 2.40773,0.0432 19.23593,5.39202 37.39599,11.88621 18.16008,6.49418 33.64717,12.02834 34.41577,12.2981 0.76862,0.26975 0.64161,-0.93768 -0.28222,-2.68321 l -1.67966,-3.17368 6.33187,2.37027 c 15.62598,5.84944 20.29401,7.83529 20.45365,8.70127 0.0937,0.51087 -1.79687,2.19612 -4.20225,3.74519 z m -20.97871,1.29893 c -2.34463,-0.92054 -5.87559,4.17535 -4.19018,6.04725 2.25167,2.50082 7.08141,0.66795 6.51196,-2.47128 -0.28621,-1.57779 -1.33101,-3.18697 -2.32178,-3.57597 z m -73.49451,-32.86919 c -1.7198,-0.0208 -2.36957,0.96726 -1.99478,3.03341 0.30572,1.68534 1.44264,2.90343 2.52648,2.70682 4.52663,-0.82112 4.07616,-5.68441 -0.5317,-5.74023 z"
       id="path1645" /><path
       style="fill:#ffcc00;fill-opacity:0.162228;stroke-width:4.78772"
       d="m 494.67357,527.75519 c -2.70073,2.03595 -6.75494,5.9038 -9.00939,8.59521 -8.03029,9.58684 -15.0673,25.73321 -15.55995,35.70225 -0.11637,2.3547 -0.4355,4.32192 -0.70919,4.37157 -1.19475,0.21672 -8.25557,-5.90029 -8.52498,-7.38545 -0.35378,-1.95032 -10.46658,-9.56748 -11.48487,-8.65065 -1.28319,1.15536 -21.16144,-13.92646 -34.97721,-26.53753 -14.44492,-13.18538 -18.93495,-17.91512 -19.39035,-20.42558 -0.15385,-0.84819 -0.92067,-2.13186 -1.704,-2.8526 -2.12056,-1.95105 -2.23583,-4.0766 -0.45713,-8.45622 1.99019,-4.90114 4.69318,-8.02423 7.36332,-8.50779 3.06612,-0.55543 9.89345,1.5356 35.61062,10.90566 27.70023,10.09257 39.29641,13.91621 39.1114,12.89631 -0.0745,-0.41065 -1.00203,-1.51413 -2.06118,-2.45218 -1.05915,-0.93804 -1.96932,-1.94588 -2.02263,-2.23966 -0.0532,-0.29379 2.90349,0.46843 6.57061,1.69375 10.05883,3.36106 21.88766,8.16544 22.02952,8.94748 0.0692,0.38152 -2.08386,2.35946 -4.78457,4.39542 z m -19.59177,2.04162 c -0.82632,-1.36043 -4.56874,-0.88478 -5.6822,0.72218 -1.37486,1.98421 -0.2949,4.71252 2.03705,5.1462 3.92387,0.72973 5.80925,-2.30559 3.64515,-5.86838 z m -74.49962,-34.25986 c -2.29807,-0.29551 -3.14355,1.07934 -2.32693,3.78394 0.78724,2.60736 3.4954,2.91 5.11565,0.57167 1.26379,-1.82389 -0.13901,-4.01489 -2.78872,-4.35561 z"
       id="path2009" /><path
       style="fill:#ffcc00;fill-opacity:0.162228;stroke-width:4.78772"
       d="m 595.23957,571.49874 c -4.85568,4.14217 -7.17972,6.51314 -15.7183,16.0357 -2.15828,2.407 -4.74828,4.52587 -5.75558,4.7086 -2.7735,0.5031 -4.08522,2.91787 -2.99842,5.51989 0.74254,1.77778 0.33494,3.82261 -2.18343,10.95329 -3.13071,8.86456 -6.11297,21.21873 -5.70211,23.62137 0.36897,2.15788 -0.21059,3.94314 -1.34707,4.14929 -1.51989,0.27571 -8.69742,-4.09676 -48.98942,-29.84372 -24.1285,-15.41832 -35.83397,-23.35113 -36.21621,-24.54372 -1.75702,-5.48185 1.08495,-19.44436 5.99788,-29.46751 3.99583,-8.15215 12.98875,-18.32124 21.18588,-23.95685 3.0646,-2.10693 3.08422,-2.10996 6.8329,-1.06115 12.84668,3.59424 87.67414,35.98422 89.37861,38.6886 0.33331,0.52897 -1.48983,2.64141 -4.48473,5.19621 z"
       id="path2048" /><path
       style="fill:#ffcc00;fill-opacity:0.162228;stroke-width:4.78772"
       d="m 811.2851,681.5941 c -4.69677,3.43442 -11.61358,10.23311 -17.10486,16.81282 -6.06952,7.27252 -8.84118,10.01293 -9.76166,9.65154 -1.24745,-0.48979 -2.69019,2.6789 -2.25941,4.9624 0.23031,1.21917 -1.00405,5.92267 -2.89433,11.03131 -3.87545,10.47382 -5.33845,16.20466 -6.25495,24.50168 -0.36909,3.34145 -0.84845,6.36678 -1.06522,6.72295 -0.67139,1.10309 -56.21539,-27.40884 -91.43932,-46.9378 -22.81359,-12.64837 -90.83213,-52.82591 -102.58562,-60.59581 l -4.89792,-3.23787 -0.29226,-4.3621 c -0.66921,-9.98877 5.79694,-31.16692 12.82789,-42.01435 6.49749,-10.02442 21.00099,-23.98269 25.7771,-24.80809 2.71993,-0.47002 7.05397,1.5109 45.81219,20.93908 59.94734,30.04957 105.22801,54.13059 137.93491,73.35605 8.41455,4.94617 16.2771,9.54839 17.47233,10.22715 l 2.17315,1.23412 z"
       id="path2087" /><path
       style="fill:#ffcc00;fill-opacity:0.162228;stroke-width:4.78772"
       d="m 922.38389,753.09871 c -2.47395,1.65932 -7.94705,6.7324 -12.16246,11.27352 -4.22855,4.55528 -8.44064,8.39739 -9.39608,8.5707 -2.23873,0.4061 -3.35409,2.06276 -2.93696,4.36224 0.18255,1.0063 -0.60469,5.53145 -1.74932,10.05584 -2.30257,9.10156 -3.44771,16.43773 -3.38435,21.68228 0.0289,2.39721 -0.29931,3.38705 -1.07466,3.24039 -2.24215,-0.42415 -65.93958,-28.63737 -68.82368,-30.48378 -0.17597,-0.1127 0.68896,-1.66102 1.92215,-3.44075 1.23319,-1.77974 2.4363,-4.62034 2.67361,-6.31242 0.55645,-3.96805 -1.28791,-10.30567 -4.05626,-13.9383 -4.734,-6.21187 -17.74107,-11.54718 -23.03927,-9.45039 -4.75126,1.88034 -8.09234,7.75527 -8.13158,14.29855 -0.0175,2.91564 -0.0614,2.95945 -2.28278,2.27765 -3.51035,-1.07744 -5.79974,-3.21615 -6.19038,-5.78294 -0.67888,-4.46107 0.77534,-15.0376 3.1197,-22.68951 5.76027,-18.80129 17.46955,-35.71374 32.63834,-47.14157 l 5.11885,-3.85644 6.77953,3.81089 6.77954,3.81086 -7.54581,1.77288 c -8.46735,1.98942 -10.3188,3.30864 -13.80351,9.83544 -1.52241,2.85143 -1.78557,4.30994 -1.25293,6.94403 1.30374,6.44761 5.46663,10.92591 12.2339,13.16088 8.32845,2.75056 17.27867,0.46273 22.2965,-5.6994 3.23376,-3.97119 3.87958,-7.86651 2.21026,-13.33176 -0.6902,-2.25981 -1.06685,-4.14287 -0.83704,-4.18456 0.53886,-0.0977 66.24028,41.61517 71.44911,45.36203 l 3.94352,2.8367 z"
       id="path2126" /><path
       style="fill:#ffcc00;fill-opacity:0.162228;stroke-width:4.78772"
       d="m 1035.5536,857.38125 c -7.3623,0.92574 -17.6308,0.62807 -20.8737,-0.60491 -0.394,-0.1499 -0.097,-1.22866 0.66,-2.39742 0.7569,-1.16881 1.0684,-2.467 0.692,-2.8851 -0.6851,-0.76092 -26.64861,-13.03577 -60.58269,-28.64198 -9.94156,-4.57209 -20.52813,-9.445 -23.52578,-10.82865 -2.99765,-1.38369 -5.80328,-2.45175 -6.23478,-2.37347 -1.39768,0.25354 -3.18135,5.14914 -3.49847,9.60224 -0.17006,2.38881 -0.64618,4.5279 -1.05795,4.7535 -1.40871,0.7723 -8.40229,-3.46353 -9.48867,-5.74665 -2.36409,-4.96848 -0.66132,-16.2046 4.076,-26.89581 5.20719,-11.75155 14.23499,-23.06594 22.67229,-28.41471 l 3.89974,-2.47221 5.581,4.08663 c 9.18689,6.72694 28.95726,21.76675 41.90109,31.87519 25.42062,19.85214 40.08842,32.9975 47.11002,42.22037 3.8853,5.10333 4.7067,6.74809 5.886,11.78706 l 1.3706,5.85628 z"
       id="path2165" /><path
       style="fill:#ffcc00;fill-opacity:0.162228;stroke-width:4.78772"
       d="m 1012.124,856.99671 c -4.2826,-0.7965 -31.04493,-9.03378 -43.60028,-13.41998 -8.84671,-3.09058 -12.54808,-4.73988 -11.73961,-5.23098 1.31944,-0.80139 36.83325,10.16119 49.56089,15.29862 1.8078,0.72976 4.2377,1.39005 5.4001,1.4675 1.1621,0.0773 2.2003,0.62179 2.307,1.21005 0.1491,0.82164 -0.2978,0.97798 -1.9281,0.67479 z"
       id="path2243" /></g></svg>
